<?xml version="1.0" encoding="UTF-8"?>
<svg xmlns="http://www.w3.org/2000/svg" viewBox="0 0 1200.00 393.77">
  <rect width="100%" height="100%" fill="#f7f7f7"/>
  <g>    <path d="M601.85 342.10 L602.02 342.21 L602.09 342.35 L601.80 342.14 L601.85 342.10 Z M601.38 341.84 L601.54 341.95 L601.54 342.02 L601.36 341.95 L601.38 341.84 Z M597.36 341.48 L597.48 341.53 L597.50 341.56 L597.29 341.58 L597.36 341.48 Z M597.64 341.18 L597.66 341.32 L597.62 341.34 L597.50 341.20 L597.64 341.18 Z M597.75 340.90 L597.78 340.97 L597.57 340.95 L597.59 340.90 L597.75 340.90 Z M597.50 339.72 L597.68 339.79 L597.68 339.84 L597.43 339.75 L597.50 339.72 Z M621.40 338.14 L621.41 338.42 L621.36 338.42 L621.31 338.19 L621.40 338.14 Z M622.37 338.05 L622.33 338.33 L622.02 338.38 L622.26 338.05 L622.37 338.05 Z M627.12 337.37 L626.92 337.60 L626.79 337.51 L627.01 337.37 L627.12 337.37 Z M628.02 336.68 L628.39 336.87 L628.39 336.92 L628.04 336.90 L628.02 336.68 Z M667.62 262.01 L666.71 264.17 L666.96 267.49 L669.66 272.44 L665.91 278.84 L656.61 279.74 L649.07 283.87 L639.67 297.27 L639.58 304.49 L640.99 306.57 L637.77 311.55 L639.15 311.99 L647.04 308.71 L649.01 309.65 L650.83 312.79 L649.59 318.01 L643.67 322.31 L641.51 325.65 L642.85 327.13 L637.08 332.43 L634.12 334.28 L626.12 334.19 L623.64 335.53 L622.53 337.49 L622.75 336.38 L622.14 336.69 L621.92 338.40 L621.41 337.70 L619.64 337.60 L619.08 338.42 L620.07 337.98 L620.98 339.67 L623.79 337.04 L623.46 336.28 L625.34 335.89 L624.79 337.91 L625.50 336.57 L625.32 337.89 L628.61 337.56 L628.47 336.94 L629.67 337.60 L624.77 340.36 L623.31 344.38 L620.80 345.23 L619.81 346.85 L610.56 345.27 L605.61 348.50 L605.01 346.66 L604.54 346.38 L606.06 344.43 L602.23 342.97 L602.41 341.93 L601.35 341.39 L600.91 342.19 L599.97 341.27 L601.38 340.78 L600.09 339.75 L595.69 338.83 L594.62 339.89 L595.40 340.80 L601.50 344.10 L604.70 347.23 L584.25 337.55 L579.07 336.83 L581.24 335.01 L586.56 333.95 L588.59 331.01 L588.74 328.83 L587.80 321.46 L584.43 317.01 L579.70 313.99 L578.13 308.57 L571.00 295.87 L571.13 290.49 L575.67 286.74 L575.52 283.38 L572.90 278.39 L573.53 276.73 L576.21 275.16 L586.00 275.86 L589.49 274.62 L597.76 267.52 L597.38 262.43 L599.51 259.91 L612.98 262.04 L623.26 259.78 L627.01 253.27 L647.82 245.39 L657.09 231.12 L666.10 227.98 L670.62 227.81 L673.41 229.32 L677.75 237.20 L673.66 241.18 L667.98 257.22 L667.62 262.01 Z" fill="#f97316" stroke="#ffffff" stroke-width="1.4" data-name="Adana"/>
    <path d="M813.21 251.27 L825.96 251.22 L835.11 249.65 L839.46 247.93 L841.78 245.45 L844.82 246.16 L847.62 245.03 L850.21 246.57 L847.94 253.72 L839.39 257.52 L834.29 262.41 L833.31 264.24 L833.42 269.82 L831.77 272.71 L824.19 276.22 L824.76 278.38 L824.11 279.39 L810.74 283.44 L802.13 289.00 L792.88 289.29 L782.00 294.13 L775.99 292.62 L771.09 288.55 L759.40 285.51 L752.10 287.55 L748.58 287.55 L745.46 285.15 L738.35 283.15 L735.66 281.02 L736.02 275.58 L746.78 267.97 L755.74 267.39 L757.76 265.37 L761.90 264.34 L770.96 265.71 L783.52 262.08 L780.63 251.41 L797.14 244.51 L805.81 242.57 L811.91 244.54 L811.27 246.41 L807.43 249.21 L813.21 251.27 Z" fill="#facc15" stroke="#ffffff" stroke-width="1.4" data-name="Adıyaman"/>
    <path d="M356.68 184.10 L358.16 186.98 L362.76 188.89 L377.60 188.58 L378.34 197.30 L372.99 205.82 L370.87 211.58 L372.21 214.75 L376.50 217.40 L350.30 230.23 L347.08 229.47 L341.83 224.85 L339.51 224.93 L321.45 238.84 L311.47 241.62 L303.76 245.34 L294.30 252.55 L288.00 256.00 L285.37 258.20 L282.80 263.19 L283.87 266.42 L281.83 268.66 L277.04 270.98 L269.31 270.53 L261.69 271.98 L259.81 268.33 L253.87 266.24 L250.32 266.24 L250.46 257.72 L266.65 250.53 L272.64 245.98 L273.96 243.15 L273.68 241.26 L266.50 231.16 L256.06 228.58 L257.09 225.33 L263.41 216.68 L264.76 212.58 L276.05 207.65 L278.59 205.62 L288.30 188.88 L295.45 186.50 L298.52 184.12 L299.75 181.51 L303.02 182.55 L305.36 186.22 L309.67 189.45 L311.42 189.59 L319.36 186.36 L321.42 183.61 L326.83 181.08 L333.29 184.44 L342.85 180.73 L349.11 176.59 L353.08 177.30 L356.68 184.10 Z" fill="#4ade80" stroke="#ffffff" stroke-width="1.4" data-name="Afyon"/>
    <path d="M1109.97 136.45 L1109.88 144.66 L1113.77 146.36 L1115.14 146.41 L1118.50 143.05 L1124.17 142.92 L1131.56 144.36 L1147.78 151.51 L1157.80 150.95 L1162.36 152.35 L1166.60 152.41 L1171.60 151.01 L1178.88 150.84 L1178.45 154.96 L1175.11 159.31 L1176.18 163.01 L1174.93 164.79 L1175.42 167.12 L1174.32 168.75 L1166.69 171.15 L1161.84 168.72 L1158.74 169.21 L1157.31 170.79 L1156.45 170.63 L1156.79 169.35 L1152.17 169.03 L1150.91 171.82 L1149.85 171.12 L1145.43 172.09 L1130.04 171.23 L1125.61 175.47 L1122.31 176.38 L1116.15 173.91 L1111.90 170.06 L1103.59 169.19 L1097.20 173.87 L1091.58 174.22 L1090.17 175.15 L1090.50 176.61 L1095.65 179.55 L1095.69 184.01 L1094.57 185.69 L1083.42 189.34 L1074.42 190.33 L1069.54 192.08 L1068.29 184.45 L1064.68 178.78 L1061.89 177.34 L1054.95 170.91 L1051.79 165.37 L1051.61 163.97 L1055.38 158.81 L1054.29 148.72 L1052.32 146.52 L1040.45 143.44 L1038.57 140.49 L1039.98 139.19 L1048.03 139.73 L1058.05 135.09 L1062.56 136.96 L1067.10 136.96 L1091.66 131.28 L1108.54 134.28 L1109.97 136.45 Z" fill="#2dd4bf" stroke="#ffffff" stroke-width="1.4" data-name="Ağrı"/>
    <path d="M534.63 204.35 L538.22 207.32 L534.63 214.58 L538.87 218.16 L543.57 227.37 L546.47 229.53 L544.84 233.99 L544.52 238.79 L546.48 241.82 L546.16 246.87 L542.43 248.56 L538.58 253.50 L533.47 252.62 L530.98 253.75 L529.65 256.15 L507.90 259.75 L490.17 261.23 L485.06 260.06 L481.87 256.78 L474.21 243.53 L474.37 241.03 L478.05 235.28 L479.09 230.12 L483.00 221.80 L488.29 217.16 L501.84 212.50 L510.86 212.26 L517.02 208.13 L518.46 205.10 L514.79 197.27 L517.19 193.90 L526.64 200.44 L532.85 201.79 L534.63 204.35 Z" fill="#38bdf8" stroke="#ffffff" stroke-width="1.4" data-name="Aksaray"/>
    <path d="M628.36 76.88 L637.00 77.69 L644.18 76.99 L650.80 79.02 L658.31 75.16 L659.75 70.45 L663.25 70.50 L670.30 72.20 L670.53 74.98 L675.03 77.35 L673.07 80.31 L675.55 83.59 L676.58 87.51 L674.62 92.22 L667.34 99.02 L659.65 103.07 L653.87 103.88 L649.47 103.01 L644.38 100.36 L637.26 100.41 L629.22 111.38 L620.46 114.64 L617.54 117.06 L616.44 119.92 L607.63 119.59 L605.19 117.47 L605.90 109.37 L612.45 102.52 L613.44 95.90 L611.16 93.29 L600.47 90.10 L593.82 89.82 L589.52 87.19 L585.95 79.00 L587.26 78.41 L587.48 72.24 L590.10 67.18 L590.21 63.53 L614.77 68.43 L624.69 73.78 L626.06 75.80 L628.36 76.88 Z" fill="#6366f1" stroke="#ffffff" stroke-width="1.4" data-name="Amasya"/>
    <path d="M470.94 105.91 L473.01 109.81 L475.92 111.07 L479.88 110.85 L481.97 107.64 L484.84 107.45 L504.82 114.37 L500.04 119.17 L495.27 128.79 L497.82 133.91 L497.77 137.28 L496.45 139.06 L486.36 143.45 L481.48 147.38 L479.20 153.79 L479.06 158.43 L477.05 165.49 L473.78 170.82 L477.12 173.72 L482.30 174.55 L483.61 177.04 L482.07 180.28 L485.28 184.32 L492.23 178.45 L496.61 183.67 L518.21 192.15 L514.79 197.27 L518.45 206.14 L517.02 208.13 L511.07 212.18 L501.84 212.50 L488.29 217.16 L481.85 207.44 L482.59 192.03 L470.93 177.08 L466.39 180.58 L462.63 180.70 L460.53 184.43 L456.84 186.49 L452.45 184.74 L448.83 184.87 L443.04 189.27 L440.57 192.35 L431.38 191.29 L425.91 194.74 L415.01 190.14 L404.71 192.49 L401.81 191.72 L389.26 183.52 L396.12 180.17 L397.28 170.50 L396.16 162.82 L390.81 155.99 L387.13 148.68 L387.01 146.31 L389.44 143.79 L387.67 139.66 L383.88 139.12 L377.54 132.54 L372.60 130.78 L344.99 129.05 L335.44 130.60 L330.47 130.42 L328.93 129.57 L328.57 125.60 L326.08 123.02 L331.16 117.85 L336.95 114.74 L336.31 108.24 L337.78 105.78 L343.00 106.82 L350.50 110.09 L369.46 112.49 L378.11 110.27 L383.66 111.03 L390.53 110.17 L405.69 105.22 L419.92 105.79 L426.37 98.61 L423.52 91.00 L427.96 87.72 L437.57 87.82 L456.40 94.35 L470.94 105.91 Z" fill="#a855f7" stroke="#ffffff" stroke-width="1.4" data-name="Ankara"/>
    <path d="M248.77 374.62 L249.19 374.97 L248.08 375.47 L248.13 375.25 L248.77 374.62 Z M250.25 373.66 L250.11 374.06 L249.75 373.89 L249.76 373.80 L250.25 373.66 Z M256.08 373.37 L256.74 373.98 L255.02 374.53 L255.12 374.26 L256.08 373.37 Z M249.80 373.18 L249.85 373.26 L249.66 373.37 L249.66 373.23 L249.80 373.18 Z M247.87 372.60 L248.08 372.73 L247.70 372.78 L247.71 372.67 L247.87 372.60 Z M248.34 372.60 L248.36 372.69 L248.13 372.73 L248.15 372.67 L248.34 372.60 Z M239.57 372.17 L239.73 372.38 L239.85 372.22 L241.16 372.38 L239.21 372.78 L239.57 372.17 Z M248.01 372.03 L248.03 372.13 L247.89 372.20 L247.83 372.06 L248.01 372.03 Z M248.17 371.98 L248.22 372.05 L248.18 372.17 L248.08 372.10 L248.17 371.98 Z M245.89 371.79 L245.70 372.83 L246.77 373.16 L243.78 374.64 L245.89 371.79 Z M263.42 371.63 L263.45 371.72 L263.28 371.80 L263.31 371.65 L263.42 371.63 Z M261.16 371.49 L261.24 371.68 L261.12 371.75 L260.98 371.63 L261.16 371.49 Z M260.93 371.61 L260.89 371.49 L261.12 371.44 L261.10 371.49 L260.93 371.61 Z M243.10 370.50 L243.31 370.69 L243.31 370.76 L242.95 370.66 L243.10 370.50 Z M265.90 370.22 L265.88 370.43 L265.76 370.43 L265.73 370.36 L265.90 370.22 Z M296.89 370.19 L296.98 370.97 L296.84 371.23 L296.58 370.26 L296.89 370.19 Z M266.04 369.84 L263.94 371.63 L263.97 371.14 L261.40 371.63 L266.04 369.84 Z M296.75 369.51 L296.59 369.89 L296.37 369.84 L296.53 369.54 L296.75 369.51 Z M236.27 369.40 L236.13 369.73 L236.03 369.75 L235.99 369.47 L236.27 369.40 Z M265.07 369.28 L265.35 369.46 L265.28 369.61 L265.05 369.53 L265.07 369.28 Z M265.57 368.88 L265.28 369.26 L264.79 369.11 L264.95 368.97 L265.57 368.88 Z M231.65 368.55 L230.78 369.06 L230.45 369.14 L230.51 368.81 L231.65 368.55 Z M232.18 368.15 L232.15 368.45 L231.78 368.40 L231.87 368.19 L232.18 368.15 Z M300.98 367.14 L301.48 367.68 L301.39 367.80 L300.79 367.39 L300.98 367.14 Z M280.41 365.60 L280.32 365.70 L280.13 365.63 L280.13 365.60 L280.41 365.60 Z M306.02 353.35 L306.05 353.58 L305.62 353.58 L305.85 353.35 L306.02 353.35 Z M375.53 341.67 L375.56 341.77 L375.37 341.70 L375.37 341.67 L375.53 341.67 Z M308.26 331.86 L308.33 331.93 L308.33 332.09 L308.18 332.00 L308.26 331.86 Z M362.10 298.07 L379.54 299.10 L386.98 301.56 L411.16 319.59 L414.80 328.94 L423.25 330.83 L426.03 335.19 L425.15 340.01 L428.12 347.09 L431.27 350.40 L437.78 354.29 L436.38 358.20 L437.06 364.47 L432.89 375.31 L430.06 376.45 L427.12 375.39 L415.07 367.54 L413.78 364.12 L410.10 361.20 L406.97 356.10 L398.43 348.52 L396.93 348.22 L396.60 349.01 L395.68 349.20 L394.62 347.41 L382.46 344.40 L380.67 342.26 L376.05 341.89 L369.11 337.65 L358.15 334.38 L358.21 333.34 L354.61 331.55 L334.38 328.49 L318.78 329.32 L315.20 326.83 L310.33 328.96 L307.36 332.45 L307.13 339.96 L306.09 341.77 L306.42 343.93 L308.40 345.32 L306.30 348.19 L306.77 348.87 L305.27 349.51 L303.13 352.87 L303.27 354.68 L301.50 355.04 L302.16 355.82 L301.22 357.25 L304.52 361.28 L300.61 362.54 L300.68 363.49 L301.97 363.47 L301.90 364.74 L296.77 369.11 L296.93 364.97 L294.54 365.39 L288.98 362.52 L283.92 362.47 L280.74 363.37 L280.87 365.18 L280.02 364.81 L278.67 366.73 L275.22 365.96 L270.20 368.80 L266.51 367.56 L264.55 368.97 L264.29 370.08 L261.73 369.93 L260.67 370.38 L262.01 370.12 L258.89 371.86 L260.69 371.63 L258.39 373.26 L256.34 373.44 L257.82 372.33 L254.03 371.98 L251.50 374.05 L251.23 372.64 L249.75 373.00 L248.23 371.60 L248.95 370.71 L249.49 371.35 L249.14 369.93 L245.31 370.57 L248.23 369.35 L237.49 368.36 L236.41 369.04 L237.26 368.08 L234.55 368.17 L234.08 366.92 L234.88 365.89 L233.37 365.68 L231.84 365.77 L232.24 366.64 L230.88 367.84 L228.41 366.76 L224.81 363.42 L227.47 362.26 L229.33 357.05 L229.25 354.52 L244.70 343.72 L246.64 333.43 L250.94 327.45 L251.61 324.68 L255.86 323.65 L259.42 320.18 L261.87 311.98 L266.38 307.83 L274.36 304.73 L291.12 300.38 L294.01 300.85 L296.00 304.39 L299.17 305.61 L318.35 304.81 L321.78 305.55 L326.58 296.93 L329.97 296.21 L333.77 298.15 L345.22 295.21 L348.92 293.20 L354.21 293.04 L357.43 296.43 L362.10 298.07 Z" fill="#ec4899" stroke="#ffffff" stroke-width="1.4" data-name="Antalya"/>
    <path d="M1070.35 32.62 L1074.95 32.71 L1073.98 35.65 L1072.27 36.87 L1073.28 38.36 L1075.93 39.60 L1076.82 37.96 L1078.65 37.67 L1079.22 39.10 L1083.29 40.94 L1086.75 45.52 L1091.55 47.00 L1093.31 49.30 L1097.86 50.40 L1092.96 53.29 L1097.22 53.42 L1099.71 57.13 L1099.38 58.18 L1102.87 57.82 L1101.71 59.47 L1101.61 63.56 L1099.36 67.26 L1096.11 69.01 L1089.71 70.09 L1079.89 73.74 L1077.39 78.05 L1077.03 83.58 L1074.93 87.13 L1066.71 89.14 L1060.86 91.73 L1056.91 91.69 L1053.38 86.64 L1046.32 79.56 L1043.44 73.93 L1043.31 70.27 L1047.53 63.86 L1053.25 59.43 L1057.49 57.58 L1059.11 55.03 L1055.89 50.37 L1052.20 41.67 L1055.17 41.65 L1054.91 39.20 L1058.25 37.22 L1058.90 33.76 L1060.30 32.65 L1066.94 31.76 L1070.35 32.62 Z" fill="#f87171" stroke="#ffffff" stroke-width="1.4" data-name="Ardahan"/>
    <path d="M996.90 37.07 L1001.00 38.93 L1004.37 38.04 L1004.80 39.46 L1008.90 40.14 L1011.52 41.99 L1019.79 36.36 L1025.61 38.24 L1028.05 37.16 L1034.11 36.99 L1035.36 38.30 L1040.24 38.20 L1043.51 39.71 L1048.12 39.99 L1052.20 41.67 L1055.89 50.37 L1059.11 55.03 L1057.49 57.58 L1053.25 59.43 L1047.53 63.86 L1043.31 70.27 L1039.69 71.37 L1028.81 71.46 L1023.39 73.54 L1020.92 78.19 L1016.57 91.70 L1011.60 93.10 L1004.71 90.45 L1000.57 90.38 L986.83 96.55 L982.69 95.54 L981.25 91.10 L984.85 85.18 L984.13 83.46 L972.46 82.96 L967.65 81.19 L981.09 67.24 L985.49 65.13 L986.54 63.35 L985.61 61.87 L983.08 61.69 L979.20 59.49 L976.00 56.15 L975.51 53.20 L973.23 50.24 L977.04 47.61 L985.70 45.00 L989.67 40.31 L992.66 38.99 L994.31 36.26 L996.90 37.07 Z" fill="#fb7185" stroke="#ffffff" stroke-width="1.4" data-name="Artvin"/>
    <path d="M104.22 298.87 L104.46 298.94 L104.32 299.46 L103.94 299.24 L104.22 298.87 Z M109.33 293.73 L109.28 294.00 L109.10 294.00 L109.14 293.83 L109.33 293.73 Z M94.95 284.33 L95.02 284.47 L94.98 284.54 L94.86 284.47 L94.95 284.33 Z M92.36 281.19 L92.48 281.66 L93.57 282.87 L92.27 281.59 L92.36 281.19 Z M83.94 278.70 L83.85 278.96 L83.56 278.96 L83.64 278.79 L83.94 278.70 Z M84.50 278.60 L84.44 278.77 L84.15 278.75 L84.20 278.65 L84.50 278.60 Z M84.72 276.25 L84.70 276.39 L84.57 276.37 L84.55 276.27 L84.72 276.25 Z M197.22 254.71 L200.61 258.09 L195.82 262.86 L194.01 266.83 L199.32 271.83 L201.16 276.31 L192.52 282.04 L184.61 281.39 L182.09 282.58 L180.63 283.86 L181.02 285.54 L183.99 289.70 L175.03 288.48 L164.60 282.87 L159.97 284.41 L155.55 289.90 L138.97 291.00 L127.30 288.48 L115.26 283.64 L111.42 287.96 L109.54 293.59 L106.65 294.59 L106.09 296.32 L104.18 295.92 L104.25 298.16 L101.43 297.31 L99.45 298.59 L95.56 297.46 L97.21 295.05 L96.65 294.65 L98.01 294.21 L97.24 293.33 L97.82 290.04 L97.66 289.06 L94.95 289.93 L96.25 288.94 L96.15 287.29 L95.75 286.26 L95.45 288.86 L94.84 289.38 L95.56 285.45 L94.08 286.04 L93.56 282.96 L94.55 284.44 L94.27 284.61 L94.29 285.22 L94.49 285.33 L97.17 282.63 L91.35 280.11 L83.75 278.35 L85.52 276.41 L89.78 277.01 L97.92 274.49 L100.25 270.42 L100.32 268.55 L98.30 267.08 L98.67 265.76 L100.04 265.40 L100.16 263.78 L105.76 263.81 L111.22 262.26 L114.50 260.52 L116.35 258.11 L128.65 257.91 L132.13 258.74 L141.38 257.31 L142.33 255.86 L143.27 256.59 L150.67 255.16 L161.76 255.82 L182.46 250.09 L189.79 250.05 L191.22 250.79 L190.72 252.13 L197.22 254.71 Z" fill="#c084fc" stroke="#ffffff" stroke-width="1.4" data-name="Aydın"/>
    <path d="M58.45 175.41 L58.71 176.68 L57.11 177.06 L57.96 175.51 L58.45 175.41 Z M54.12 174.31 L53.98 174.35 L53.82 174.29 L54.19 174.24 L54.12 174.31 Z M62.24 174.09 L62.24 174.19 L62.05 174.14 L62.05 174.09 L62.24 174.09 Z M54.72 173.63 L55.00 174.03 L54.19 174.09 L54.26 173.63 L54.72 173.63 Z M58.93 172.94 L59.32 173.55 L58.22 173.36 L58.65 172.96 L58.93 172.94 Z M57.12 172.82 L57.26 173.16 L56.83 173.55 L56.92 173.02 L57.12 172.82 Z M64.48 172.52 L64.58 172.92 L63.75 172.82 L63.75 172.69 L64.48 172.52 Z M58.22 172.47 L58.62 172.85 L57.63 172.94 L57.63 172.57 L58.22 172.47 Z M63.05 172.21 L63.00 172.35 L62.58 172.36 L62.67 172.28 L63.05 172.21 Z M64.60 171.09 L64.71 171.29 L64.52 171.41 L64.41 171.15 L64.60 171.09 Z M66.48 170.66 L66.50 170.82 L66.29 170.80 L66.31 170.71 L66.48 170.66 Z M69.07 170.64 L69.07 170.94 L68.53 171.08 L68.62 170.87 L69.07 170.64 Z M65.28 170.45 L65.38 171.01 L64.98 170.99 L64.97 170.63 L65.28 170.45 Z M56.79 170.29 L56.99 170.56 L56.62 170.73 L56.55 170.36 L56.79 170.29 Z M59.44 169.62 L62.92 170.00 L59.98 171.23 L64.20 173.53 L59.94 173.96 L59.02 172.38 L59.99 172.09 L59.61 170.59 L58.45 170.26 L59.44 169.62 Z M57.91 169.53 L58.72 169.69 L57.79 171.39 L57.00 170.00 L57.91 169.53 Z M65.56 168.75 L65.51 168.97 L65.16 169.01 L65.21 168.85 L65.56 168.75 Z M133.03 108.13 L132.89 108.41 L132.51 108.46 L132.47 108.28 L133.03 108.13 Z M151.91 103.35 L152.05 103.66 L151.55 103.50 L151.83 103.29 L151.91 103.35 Z M150.35 102.82 L150.85 102.95 L151.20 103.52 L150.11 103.15 L150.35 102.82 Z M125.08 102.58 L125.33 103.87 L124.61 103.92 L124.30 103.45 L125.08 102.58 Z M152.35 102.42 L152.77 102.46 L152.77 102.51 L152.31 102.63 L152.35 102.42 Z M119.00 102.41 L119.05 102.55 L118.89 102.67 L118.74 102.48 L119.00 102.41 Z M122.46 99.80 L122.61 100.65 L124.35 100.93 L123.15 102.25 L124.23 103.50 L119.74 102.84 L120.04 101.59 L121.62 101.66 L121.08 99.95 L122.46 99.80 Z M127.99 98.88 L128.04 98.93 L128.02 99.08 L127.90 98.96 L127.99 98.88 Z M120.09 98.74 L120.27 100.15 L119.90 100.84 L119.40 100.61 L120.09 98.74 Z M130.75 98.72 L132.23 98.86 L132.70 100.13 L133.29 99.29 L138.07 99.43 L148.16 101.68 L146.54 104.27 L139.71 107.36 L143.32 109.71 L149.97 107.87 L159.67 106.88 L154.90 112.18 L153.89 118.67 L153.90 124.68 L154.83 126.87 L159.37 129.85 L165.15 139.99 L167.32 140.30 L178.80 146.44 L188.12 147.08 L195.46 155.30 L203.10 155.40 L205.46 156.48 L206.47 157.52 L204.70 159.92 L205.05 161.86 L201.46 171.45 L195.83 176.64 L187.57 179.77 L187.62 184.15 L183.91 183.13 L175.38 186.65 L156.57 191.73 L153.22 190.47 L149.74 183.61 L145.99 180.60 L139.64 179.63 L138.80 177.53 L140.98 173.81 L139.69 172.04 L138.75 172.77 L133.11 172.04 L126.09 172.69 L121.92 171.86 L115.90 168.50 L109.09 170.52 L94.63 168.02 L80.90 178.16 L70.10 183.65 L67.23 181.86 L65.92 178.19 L59.12 177.35 L60.12 174.90 L61.68 174.16 L62.08 175.39 L60.43 175.81 L62.97 176.94 L62.52 175.30 L64.10 174.80 L64.90 173.08 L71.40 169.86 L70.86 167.34 L74.48 166.87 L74.71 164.52 L79.26 164.02 L80.65 159.86 L78.72 157.86 L76.13 157.77 L73.45 159.48 L69.45 158.64 L62.46 159.44 L62.69 153.67 L64.09 150.71 L67.17 149.42 L73.88 149.95 L82.33 145.44 L89.31 143.69 L93.40 143.68 L100.11 146.15 L110.07 142.45 L113.15 138.84 L114.40 135.57 L114.09 134.06 L111.76 132.45 L115.28 124.27 L113.16 119.22 L119.58 114.83 L120.32 111.88 L123.19 111.34 L124.86 112.60 L131.20 112.63 L138.65 108.37 L135.17 106.79 L133.34 107.76 L132.59 106.20 L130.23 104.86 L130.63 103.68 L126.54 102.23 L126.46 100.30 L130.75 98.72 Z M115.97 98.13 L118.18 99.17 L116.34 100.48 L117.19 101.24 L114.21 102.51 L113.50 100.88 L115.97 98.13 Z M114.98 97.14 L115.27 97.52 L112.68 98.06 L112.81 97.52 L114.98 97.14 Z M131.12 92.15 L131.06 92.29 L130.93 92.25 L130.93 92.18 L131.12 92.15 Z M113.95 91.29 L114.23 91.35 L114.13 91.96 L113.59 91.64 L113.95 91.29 Z M126.07 90.23 L126.16 90.34 L125.93 90.58 L125.92 90.41 L126.07 90.23 Z M123.34 89.97 L130.14 92.20 L121.67 95.85 L116.70 94.44 L116.91 91.31 L123.34 89.97 Z" fill="#34d399" stroke="#ffffff" stroke-width="1.4" data-name="Balıkesir"/>
    <path d="M420.95 21.91 L420.98 22.14 L420.91 22.17 L420.81 22.01 L420.95 21.91 Z M439.41 16.96 L444.23 23.36 L448.37 31.91 L454.52 34.52 L448.11 37.08 L446.07 36.28 L443.88 38.58 L440.27 40.15 L436.13 46.93 L423.40 53.28 L418.74 54.27 L415.68 50.03 L398.17 34.83 L398.38 33.23 L400.46 33.51 L399.84 32.80 L405.92 31.21 L407.84 29.63 L407.44 29.09 L410.90 27.21 L410.63 26.28 L414.30 24.15 L417.89 23.95 L420.49 22.01 L422.58 22.90 L427.80 19.02 L432.44 18.43 L432.89 17.41 L439.41 16.96 Z" fill="#f97316" stroke="#ffffff" stroke-width="1.4" data-name="Bartın"/>
    <path d="M996.66 223.05 L999.57 225.22 L1001.37 230.30 L1002.56 235.18 L1002.45 244.06 L1000.44 250.60 L997.97 254.60 L990.12 255.68 L990.09 257.87 L987.07 259.74 L985.79 262.28 L992.46 265.87 L1005.80 266.08 L1006.19 267.93 L1003.87 270.92 L1007.23 273.10 L1012.52 271.77 L1014.35 272.09 L1014.70 273.27 L1002.97 277.30 L995.88 283.46 L987.92 284.90 L971.83 284.75 L963.20 274.63 L963.24 273.31 L966.23 271.44 L967.03 269.23 L963.23 267.96 L962.07 265.78 L966.62 262.25 L973.23 250.40 L974.35 245.99 L973.47 243.47 L973.45 236.16 L974.58 232.49 L976.34 229.63 L981.98 227.48 L986.37 227.14 L987.18 225.88 L986.09 224.31 L986.93 223.77 L996.66 223.05 Z" fill="#facc15" stroke="#ffffff" stroke-width="1.4" data-name="Batman"/>
    <path d="M928.82 98.95 L930.38 101.63 L932.64 112.92 L936.90 116.31 L946.70 117.53 L947.33 119.07 L945.23 122.17 L937.84 124.75 L927.28 130.26 L920.87 130.31 L904.33 127.42 L889.86 131.28 L883.92 136.12 L878.92 133.34 L878.02 130.93 L881.16 127.00 L884.99 124.55 L885.98 122.40 L886.34 116.16 L888.29 111.42 L890.11 110.07 L896.67 108.70 L900.22 105.50 L903.21 99.73 L910.52 100.49 L927.66 98.29 L928.82 98.95 Z" fill="#4ade80" stroke="#ffffff" stroke-width="1.4" data-name="Bayburt"/>
    <path d="M280.00 108.76 L290.39 106.58 L300.52 107.45 L310.42 110.82 L316.87 121.04 L307.14 122.61 L304.13 131.38 L300.47 134.88 L293.67 135.75 L286.94 140.89 L279.16 140.06 L275.03 141.59 L271.34 146.09 L271.56 148.75 L274.17 151.01 L268.37 151.70 L254.02 148.02 L251.76 142.73 L252.15 139.33 L251.15 137.72 L257.03 137.66 L258.14 136.18 L258.18 133.82 L254.07 131.70 L251.84 127.87 L254.56 119.86 L258.81 116.93 L260.82 113.94 L259.22 110.18 L259.18 106.13 L261.28 102.22 L264.58 99.56 L267.71 98.53 L270.22 102.66 L280.00 108.76 Z" fill="#2dd4bf" stroke="#ffffff" stroke-width="1.4" data-name="Bilecik"/>
    <path d="M956.38 162.19 L961.84 165.23 L968.20 165.68 L973.68 172.16 L971.72 173.59 L970.74 176.29 L972.79 184.17 L974.87 184.76 L977.16 187.48 L977.18 192.55 L969.76 200.36 L976.66 211.58 L954.37 219.92 L930.28 218.68 L928.61 219.90 L927.17 225.03 L925.24 227.05 L915.68 227.28 L916.04 222.60 L912.38 218.94 L912.49 216.57 L915.42 211.51 L919.73 211.62 L921.61 206.51 L919.52 203.04 L917.44 202.56 L915.35 197.89 L915.21 191.81 L922.30 184.65 L921.65 182.15 L919.55 180.25 L898.00 188.78 L900.01 185.67 L899.30 181.92 L901.44 177.63 L903.57 174.73 L910.04 176.32 L921.86 170.44 L918.38 167.65 L929.73 162.85 L931.40 160.11 L940.18 162.37 L951.38 159.00 L954.32 159.92 L956.38 162.19 Z" fill="#38bdf8" stroke="#ffffff" stroke-width="1.4" data-name="Bingöl"/>
    <path d="M1093.74 198.92 L1097.59 201.91 L1097.52 205.16 L1096.37 207.08 L1088.71 211.73 L1082.97 218.33 L1081.83 218.55 L1078.26 224.15 L1068.27 228.32 L1065.65 230.53 L1068.87 239.65 L1067.58 244.11 L1069.90 246.04 L1072.61 246.46 L1071.26 249.05 L1074.91 252.91 L1068.87 256.16 L1053.78 250.12 L1045.86 248.34 L1041.26 245.25 L1035.61 243.43 L1028.56 244.44 L1024.22 248.90 L1021.28 247.23 L1017.37 247.72 L1002.24 244.79 L1002.51 234.56 L999.65 225.38 L997.10 223.19 L992.68 223.08 L995.69 220.38 L998.91 219.48 L1014.04 220.04 L1018.87 218.31 L1026.11 213.51 L1025.98 211.39 L1022.52 207.64 L1022.73 206.00 L1031.15 205.43 L1031.36 202.52 L1042.01 198.43 L1053.24 198.99 L1057.73 197.95 L1065.44 198.98 L1070.74 198.14 L1069.54 192.08 L1074.42 190.33 L1086.61 188.43 L1085.56 195.27 L1093.74 198.92 Z" fill="#6366f1" stroke="#ffffff" stroke-width="1.4" data-name="Bitlis"/>
    <path d="M391.08 67.98 L414.43 68.68 L414.23 72.89 L428.38 77.82 L430.39 81.17 L429.22 86.19 L423.52 91.00 L426.37 98.61 L420.86 105.27 L416.80 105.96 L405.69 105.22 L390.53 110.17 L383.66 111.03 L378.11 110.27 L369.46 112.49 L350.50 110.09 L343.00 106.82 L337.78 105.78 L336.31 108.24 L336.95 114.74 L331.16 117.85 L326.08 123.02 L316.87 121.04 L311.20 112.49 L310.42 110.82 L311.84 107.67 L308.68 103.97 L313.70 99.36 L323.29 99.26 L328.39 98.09 L330.64 95.95 L331.13 89.09 L335.64 90.51 L345.91 89.12 L350.56 91.31 L356.57 90.39 L360.71 87.90 L360.99 81.40 L363.35 77.28 L371.80 76.63 L377.23 74.54 L380.27 72.43 L381.42 69.97 L381.42 68.23 L380.07 66.53 L391.08 67.98 Z" fill="#a855f7" stroke="#ffffff" stroke-width="1.4" data-name="Bolu"/>
    <path d="M305.22 275.56 L312.14 275.75 L315.36 277.17 L319.28 286.71 L328.21 294.68 L328.71 296.29 L325.84 297.47 L321.78 305.55 L318.35 304.81 L299.17 305.61 L296.00 304.39 L293.68 300.65 L289.42 300.48 L274.36 304.73 L263.70 309.51 L261.73 312.29 L260.38 318.72 L254.92 324.17 L251.61 324.68 L247.87 319.77 L243.00 317.88 L240.81 318.09 L236.70 321.84 L233.46 322.61 L234.34 318.96 L233.04 314.85 L233.53 310.08 L236.40 304.82 L241.53 299.88 L245.03 293.93 L245.05 292.36 L242.01 290.65 L241.75 282.59 L262.94 271.37 L271.01 270.69 L273.50 274.58 L276.45 275.57 L292.00 267.03 L294.60 267.63 L298.80 272.38 L305.22 275.56 Z" fill="#ec4899" stroke="#ffffff" stroke-width="1.4" data-name="Burdur"/>
    <path d="M179.91 96.30 L180.92 96.44 L179.74 97.45 L180.31 98.88 L179.01 99.80 L178.59 96.42 L179.91 96.30 Z M266.92 96.84 L267.71 98.53 L262.41 101.14 L259.43 105.14 L259.22 110.18 L260.93 113.63 L258.81 116.93 L254.56 119.86 L251.84 127.87 L254.07 131.70 L258.18 133.82 L257.75 136.88 L256.41 137.86 L247.30 138.61 L242.54 138.50 L237.07 136.53 L234.52 137.44 L229.83 145.82 L225.49 151.04 L224.24 158.02 L222.75 159.64 L214.55 160.37 L208.62 158.91 L203.10 155.40 L196.74 155.79 L194.53 154.66 L188.12 147.08 L178.80 146.44 L167.32 140.30 L165.15 139.99 L159.37 129.85 L154.83 126.87 L153.90 124.68 L155.00 111.81 L159.67 106.88 L178.12 107.07 L176.89 108.04 L176.36 109.07 L178.47 107.08 L186.92 109.31 L196.05 107.12 L200.71 107.71 L204.13 109.52 L207.53 109.52 L212.15 109.07 L214.15 105.66 L218.43 105.17 L214.52 102.09 L210.80 101.84 L209.42 100.67 L211.59 96.80 L225.52 96.99 L231.48 95.49 L237.10 97.05 L244.12 97.03 L258.00 93.40 L266.67 95.65 L266.92 96.84 Z" fill="#f87171" stroke="#ffffff" stroke-width="1.4" data-name="Bursa"/>
    <path d="M24.31 141.36 L25.70 142.04 L26.21 144.25 L24.83 145.13 L18.59 142.00 L24.31 141.36 Z M26.38 136.79 L26.43 136.96 L26.05 136.92 L26.24 136.80 L26.38 136.79 Z M24.29 136.09 L24.33 136.19 L24.10 136.19 L24.17 136.09 L24.29 136.09 Z M24.78 135.52 L25.53 135.79 L25.88 135.65 L25.96 135.72 L25.20 136.11 L24.78 135.52 Z M17.49 116.70 L19.53 118.27 L18.83 122.40 L20.24 122.77 L21.82 121.55 L20.57 123.57 L4.63 126.13 L0.00 124.02 L0.35 122.18 L7.51 118.63 L11.13 118.58 L17.49 116.70 Z M65.66 107.47 L65.75 107.94 L65.12 107.81 L65.23 107.64 L65.66 107.47 Z M101.50 102.06 L104.46 106.06 L102.65 106.70 L102.89 108.53 L114.44 112.58 L119.92 112.28 L119.58 114.83 L112.88 119.62 L115.31 123.92 L111.76 132.45 L114.09 134.06 L114.40 135.57 L113.15 138.84 L110.07 142.45 L100.11 146.15 L93.40 143.68 L89.31 143.69 L82.33 145.44 L73.88 149.95 L66.29 149.60 L64.09 150.71 L62.85 153.10 L62.86 159.50 L62.15 159.86 L49.73 161.77 L44.52 163.32 L44.01 164.33 L37.54 164.16 L36.10 165.37 L35.35 164.70 L29.18 166.05 L24.92 164.47 L27.58 157.76 L29.88 156.05 L31.20 153.13 L29.72 147.01 L30.88 145.79 L31.21 143.20 L29.54 141.76 L30.94 139.13 L30.34 137.08 L32.07 132.49 L33.37 131.19 L37.84 131.76 L41.82 130.07 L43.87 125.53 L46.62 124.33 L45.84 122.68 L46.55 122.11 L46.20 119.48 L49.07 119.66 L53.80 118.18 L56.81 114.27 L58.93 114.20 L64.36 109.71 L64.15 108.91 L68.06 106.58 L78.13 106.35 L80.64 107.78 L85.64 107.41 L89.19 104.13 L93.28 103.50 L96.41 104.61 L101.50 102.06 Z M86.23 84.97 L85.41 94.82 L83.33 97.02 L77.31 98.23 L64.74 103.36 L64.79 105.52 L61.11 106.56 L60.48 109.12 L57.98 111.69 L52.88 113.76 L47.54 117.99 L43.39 119.08 L44.81 122.84 L35.01 128.70 L31.60 128.93 L38.40 118.30 L38.41 115.92 L35.32 113.73 L36.40 113.05 L36.15 112.16 L34.64 111.80 L40.27 108.89 L41.73 109.03 L49.49 104.16 L60.12 99.97 L65.02 99.85 L67.75 96.81 L67.84 97.61 L69.14 97.68 L73.23 95.42 L72.22 91.29 L68.50 88.52 L70.03 85.09 L74.71 85.17 L82.79 81.59 L85.12 82.28 L86.23 84.97 Z" fill="#fb7185" stroke="#ffffff" stroke-width="1.4" data-name="Çanakkale"/>
    <path d="M508.39 71.55 L511.12 74.45 L524.03 78.53 L525.36 81.67 L524.59 89.18 L528.26 99.22 L531.75 104.78 L531.60 106.84 L528.49 111.42 L519.62 115.48 L504.14 114.25 L484.84 107.45 L481.97 107.64 L479.88 110.85 L475.92 111.07 L473.01 109.81 L469.93 104.58 L456.76 94.51 L437.57 87.82 L427.96 87.72 L430.38 81.87 L429.08 79.27 L433.35 75.97 L439.89 71.84 L460.93 68.17 L464.01 63.64 L470.79 64.54 L477.73 67.66 L481.08 70.79 L484.70 71.74 L511.44 63.21 L512.90 64.33 L513.06 65.89 L508.71 69.46 L508.39 71.55 Z" fill="#c084fc" stroke="#ffffff" stroke-width="1.4" data-name="Çankırı"/>
    <path d="M573.05 56.57 L575.12 56.82 L577.63 53.32 L580.66 56.55 L583.08 63.99 L585.52 64.52 L590.21 63.53 L590.10 67.18 L587.48 72.24 L587.26 78.41 L585.95 79.00 L590.30 88.26 L594.47 89.97 L600.47 90.10 L606.07 91.66 L611.16 93.29 L613.31 95.61 L612.45 102.52 L605.90 109.37 L605.19 117.47 L602.45 118.42 L594.88 118.45 L595.57 126.12 L587.95 129.94 L579.35 128.62 L571.20 132.28 L546.49 132.31 L541.85 135.08 L531.42 135.96 L525.18 137.76 L525.91 134.61 L534.25 129.32 L531.16 127.21 L528.38 123.59 L526.86 117.86 L519.62 115.48 L528.49 111.42 L531.86 106.00 L524.59 89.18 L525.36 81.67 L524.03 78.53 L539.17 73.76 L539.25 70.68 L535.93 68.66 L534.96 66.69 L539.99 58.72 L548.77 50.11 L550.99 50.02 L554.43 51.89 L573.05 56.57 Z" fill="#34d399" stroke="#ffffff" stroke-width="1.4" data-name="Çorum"/>
    <path d="M262.29 230.36 L266.93 231.53 L273.98 242.38 L272.64 245.98 L266.65 250.53 L250.46 257.72 L250.32 266.24 L253.87 266.24 L259.81 268.33 L261.69 271.98 L241.75 282.59 L242.01 290.65 L245.05 292.36 L245.03 293.93 L241.53 299.88 L234.54 307.73 L233.04 314.85 L229.73 317.37 L229.30 322.34 L225.17 327.04 L220.72 326.67 L213.89 320.14 L213.52 316.63 L212.31 314.94 L212.74 313.08 L210.83 310.57 L204.28 306.66 L195.39 304.31 L192.74 297.37 L184.63 294.98 L184.45 290.00 L180.63 283.86 L184.15 281.43 L192.52 282.04 L201.23 275.98 L199.32 271.83 L194.01 266.83 L195.82 262.86 L200.40 257.43 L196.22 254.01 L190.28 251.52 L195.59 248.12 L196.35 243.30 L203.82 240.39 L222.62 244.77 L235.43 240.62 L242.83 244.78 L244.82 245.00 L245.96 239.96 L249.34 235.47 L251.56 230.03 L256.06 228.58 L262.29 230.36 Z" fill="#f97316" stroke="#ffffff" stroke-width="1.4" data-name="Denizli"/>
    <path d="M984.61 219.83 L983.87 222.74 L987.13 226.16 L986.19 227.22 L981.98 227.48 L975.51 230.32 L973.45 236.16 L973.47 243.47 L974.35 245.99 L973.23 250.40 L966.62 262.25 L962.10 265.61 L963.23 267.96 L967.03 269.23 L965.94 271.71 L963.24 273.31 L947.61 274.70 L944.47 273.89 L942.20 271.93 L937.94 271.64 L935.08 270.30 L931.38 273.70 L930.89 277.34 L929.70 278.89 L923.57 279.18 L914.49 284.08 L903.31 282.73 L898.48 284.78 L889.97 284.78 L888.73 281.82 L888.66 272.89 L886.33 270.28 L882.47 267.44 L876.21 267.01 L860.68 257.32 L850.74 257.06 L845.98 255.09 L849.02 252.10 L850.08 246.24 L847.62 245.03 L844.82 246.16 L841.78 245.45 L843.70 239.90 L842.25 235.83 L851.50 233.96 L855.98 235.84 L859.75 236.01 L870.57 233.87 L880.74 233.77 L885.57 230.41 L888.75 225.82 L900.81 227.27 L924.81 227.20 L926.57 226.16 L928.51 220.06 L930.28 218.68 L954.37 219.92 L976.66 211.58 L983.28 216.75 L984.61 219.83 Z" fill="#facc15" stroke="#ffffff" stroke-width="1.4" data-name="Diyarbakır"/>
    <path d="M355.23 60.70 L361.46 65.68 L380.07 66.53 L381.42 68.23 L381.42 69.97 L380.01 72.68 L375.81 75.16 L371.80 76.63 L363.35 77.28 L360.99 81.40 L360.71 87.90 L356.57 90.39 L350.56 91.31 L345.91 89.12 L335.64 90.51 L331.13 89.09 L333.10 86.64 L327.25 83.06 L326.03 79.89 L328.14 75.64 L334.52 71.61 L336.15 68.82 L332.47 64.65 L347.56 63.07 L355.23 60.70 Z" fill="#4ade80" stroke="#ffffff" stroke-width="1.4" data-name="Düzce"/>
    <path d="M67.21 93.05 L67.31 93.45 L66.72 93.33 L66.79 93.19 L67.21 93.05 Z M68.32 92.86 L68.45 93.00 L68.18 93.07 L68.20 92.89 L68.32 92.86 Z M22.88 84.62 L22.88 84.70 L22.95 84.88 L22.85 84.76 L22.88 84.62 Z M21.65 82.37 L22.33 83.02 L22.64 83.45 L22.68 83.66 L21.65 82.37 Z M81.88 8.33 L82.87 11.74 L80.66 23.08 L77.91 26.64 L78.66 28.12 L83.40 30.22 L83.56 34.39 L78.51 39.79 L76.00 44.90 L77.20 47.73 L77.09 50.79 L79.72 54.35 L79.76 56.98 L76.80 60.52 L69.34 62.88 L67.58 65.42 L67.54 67.04 L69.98 69.23 L66.71 75.29 L66.57 80.83 L70.03 85.09 L68.50 88.52 L70.58 90.69 L59.14 91.94 L54.38 94.79 L49.84 93.19 L46.88 94.34 L44.40 93.73 L40.00 94.84 L28.76 94.81 L26.50 93.73 L24.78 91.89 L24.87 89.03 L22.94 85.86 L28.80 84.57 L30.84 80.80 L34.57 79.43 L33.57 78.45 L35.25 75.58 L36.60 76.00 L37.53 74.10 L39.13 75.48 L39.83 74.82 L39.05 73.28 L43.07 72.04 L41.21 70.23 L42.98 69.14 L43.44 67.48 L40.94 65.22 L41.45 62.22 L40.37 61.84 L41.68 60.03 L40.15 58.24 L41.72 53.28 L46.66 53.00 L54.06 47.48 L58.04 48.63 L60.83 46.91 L60.65 42.38 L58.83 38.46 L58.28 30.67 L54.55 29.95 L52.07 27.32 L44.05 24.49 L42.22 21.69 L44.59 17.07 L55.16 16.52 L57.37 14.23 L57.64 12.53 L56.60 11.14 L59.99 8.04 L67.98 9.45 L69.87 7.98 L73.46 8.51 L75.11 7.38 L81.87 6.24 L81.88 8.33 Z" fill="#2dd4bf" stroke="#ffffff" stroke-width="1.4" data-name="Edirne"/>
    <path d="M919.30 187.70 L915.43 190.90 L915.26 197.53 L917.44 202.56 L919.77 203.30 L921.56 206.84 L919.73 211.62 L915.15 211.71 L912.36 217.44 L912.38 218.94 L915.92 222.23 L915.68 227.28 L900.81 227.27 L888.75 225.82 L885.57 230.41 L880.74 233.77 L870.57 233.87 L859.75 236.01 L855.98 235.84 L851.50 233.96 L832.83 237.67 L823.63 231.69 L815.02 231.21 L805.08 228.08 L799.10 227.27 L795.93 224.94 L794.05 221.13 L796.06 216.91 L801.74 210.93 L811.61 210.04 L811.71 202.13 L808.96 196.12 L810.57 193.73 L814.87 194.12 L819.34 192.23 L821.21 195.19 L820.36 200.74 L822.80 202.09 L837.83 201.10 L865.50 210.11 L874.25 206.81 L880.34 206.70 L885.27 204.58 L890.59 198.05 L890.71 194.86 L889.12 191.59 L892.55 188.87 L899.16 188.49 L905.90 185.12 L919.91 180.22 L922.30 184.65 L919.30 187.70 Z" fill="#38bdf8" stroke="#ffffff" stroke-width="1.4" data-name="Elazığ"/>
    <path d="M914.00 137.63 L927.47 137.63 L929.31 138.44 L931.19 141.51 L930.58 144.88 L932.66 147.37 L940.68 151.16 L936.18 158.11 L936.22 161.34 L931.40 160.11 L906.29 159.50 L896.54 161.93 L890.25 159.98 L883.03 161.97 L878.47 166.13 L876.43 166.77 L873.48 166.61 L872.82 164.25 L871.42 163.81 L864.68 164.55 L854.53 163.11 L844.40 164.62 L840.91 165.50 L832.66 170.89 L823.51 174.51 L821.83 176.88 L824.39 178.28 L830.18 178.75 L829.61 180.10 L820.48 183.12 L817.65 187.32 L819.34 192.23 L814.87 194.12 L813.28 191.23 L810.82 189.43 L804.96 187.21 L798.25 187.05 L794.38 185.66 L796.83 181.05 L797.00 168.66 L794.04 160.82 L795.12 151.62 L798.09 147.69 L799.70 147.02 L800.39 145.14 L804.90 144.50 L806.89 142.66 L804.88 141.30 L797.36 142.69 L795.25 142.01 L796.16 138.34 L800.20 133.72 L817.52 134.52 L819.29 133.57 L820.62 128.75 L830.32 127.88 L842.04 131.02 L842.04 131.75 L858.83 138.83 L864.33 139.79 L881.80 137.33 L889.86 131.28 L905.02 127.43 L915.32 129.36 L912.61 135.10 L914.00 137.63 Z" fill="#6366f1" stroke="#ffffff" stroke-width="1.4" data-name="Erzincan"/>
    <path d="M1043.31 70.27 L1043.44 73.93 L1046.32 79.56 L1053.38 86.64 L1058.15 93.34 L1056.31 103.99 L1054.47 106.28 L1039.61 112.00 L1031.98 113.67 L1031.19 115.49 L1035.47 121.38 L1045.60 123.57 L1053.83 129.22 L1057.13 133.43 L1058.05 135.09 L1048.03 139.73 L1039.98 139.19 L1038.57 140.49 L1040.45 143.44 L1053.38 147.27 L1054.39 149.06 L1055.38 158.81 L1052.11 163.82 L1043.03 165.64 L1035.98 168.74 L1034.67 170.52 L1036.38 172.74 L1036.27 174.26 L1027.24 180.48 L1012.51 184.25 L1005.08 183.55 L1000.66 181.30 L992.29 173.53 L984.18 170.39 L973.68 172.16 L968.20 165.68 L961.84 165.23 L956.82 162.56 L953.77 159.67 L951.01 159.02 L940.18 162.37 L936.55 161.59 L936.18 158.11 L940.68 151.16 L932.66 147.37 L930.58 144.88 L931.19 141.51 L929.31 138.44 L927.47 137.63 L914.00 137.63 L912.72 136.13 L915.32 129.36 L927.71 130.15 L937.84 124.75 L944.92 122.35 L947.21 119.40 L946.34 117.36 L937.32 116.42 L934.49 115.12 L934.21 113.60 L932.45 112.61 L930.38 101.63 L928.60 98.29 L949.22 90.88 L967.65 81.19 L972.46 82.96 L984.13 83.46 L984.85 85.18 L981.25 91.10 L982.69 95.54 L986.83 96.55 L1001.25 90.31 L1004.71 90.45 L1012.24 93.08 L1016.90 91.33 L1020.92 78.19 L1023.39 73.54 L1028.81 71.46 L1039.69 71.37 L1043.31 70.27 Z" fill="#a855f7" stroke="#ffffff" stroke-width="1.4" data-name="Erzurum"/>
    <path d="M332.27 130.63 L344.99 129.05 L372.60 130.78 L377.54 132.54 L383.88 139.12 L387.67 139.66 L389.44 143.79 L387.01 146.31 L387.13 148.68 L390.08 154.82 L396.32 163.36 L397.29 174.84 L396.02 180.31 L387.85 183.89 L386.49 187.72 L382.33 189.52 L375.79 188.26 L363.48 188.97 L358.16 186.98 L353.08 177.30 L349.11 176.59 L342.85 180.73 L333.29 184.44 L326.83 181.08 L321.42 183.61 L319.36 186.36 L310.09 189.58 L304.74 185.67 L303.02 182.55 L299.75 181.51 L297.34 176.43 L291.50 171.80 L291.07 164.14 L280.09 155.51 L283.08 150.79 L274.17 151.01 L271.41 148.42 L271.54 145.23 L275.94 141.02 L279.89 140.05 L286.94 140.89 L293.67 135.75 L298.14 135.67 L301.55 134.23 L304.13 131.38 L307.14 122.61 L316.87 121.04 L325.21 122.72 L328.57 125.60 L329.05 129.71 L332.27 130.63 Z" fill="#ec4899" stroke="#ffffff" stroke-width="1.4" data-name="Eskişehir"/>
    <path d="M766.99 287.59 L771.68 288.83 L775.41 292.22 L771.46 292.12 L768.23 294.31 L762.70 300.05 L761.57 304.34 L764.73 316.01 L770.70 320.95 L772.98 324.12 L772.85 330.55 L766.43 333.02 L759.12 335.35 L750.60 336.42 L741.42 341.18 L736.86 333.29 L724.63 328.03 L721.99 321.79 L718.64 319.18 L710.42 318.95 L707.85 320.00 L703.95 325.70 L696.57 329.42 L696.06 331.72 L689.27 329.27 L686.18 329.57 L674.69 322.53 L680.73 312.50 L692.60 302.33 L703.10 296.71 L705.10 297.72 L707.50 305.17 L710.26 306.00 L712.61 304.92 L715.17 301.92 L721.22 298.77 L746.82 294.73 L748.50 292.51 L748.58 287.55 L752.10 287.55 L758.27 285.45 L766.99 287.59 Z" fill="#f87171" stroke="#ffffff" stroke-width="1.4" data-name="Gaziantep"/>
    <path d="M799.57 73.59 L799.64 73.68 L799.43 73.66 L799.46 73.54 L799.57 73.59 Z M845.02 64.24 L845.98 64.57 L844.06 66.89 L842.17 72.27 L842.26 78.88 L844.16 83.25 L841.55 84.32 L836.45 84.38 L831.80 87.28 L825.22 96.63 L825.71 102.92 L833.75 105.00 L839.23 109.00 L837.82 110.94 L832.36 113.11 L829.10 115.77 L828.92 122.43 L831.68 125.74 L830.70 127.54 L826.17 128.78 L820.62 128.75 L807.92 124.54 L800.95 125.76 L787.96 119.51 L786.51 111.72 L781.92 98.73 L779.49 93.50 L772.73 84.96 L779.90 72.01 L784.73 73.09 L789.92 72.64 L794.49 74.90 L796.58 73.94 L799.10 74.76 L805.31 74.43 L811.22 70.88 L814.44 72.39 L816.94 72.29 L823.30 68.48 L826.75 68.50 L830.62 66.46 L838.10 66.90 L845.02 64.24 Z" fill="#fb7185" stroke="#ffffff" stroke-width="1.4" data-name="Giresun"/>
    <path d="M845.78 84.21 L854.41 90.10 L875.52 96.75 L880.12 95.66 L882.76 89.58 L885.24 86.94 L887.39 88.45 L886.82 93.06 L890.56 93.30 L892.78 95.88 L895.43 96.71 L897.18 94.78 L895.81 91.93 L897.70 90.58 L904.16 96.09 L902.07 102.58 L899.98 105.79 L896.67 108.70 L890.11 110.07 L888.29 111.42 L886.34 116.16 L886.16 121.90 L885.18 124.25 L881.16 127.00 L878.02 130.93 L879.64 134.27 L883.92 136.12 L883.37 136.59 L873.47 138.98 L862.27 139.73 L851.31 135.90 L842.04 131.75 L842.04 131.02 L830.32 127.88 L831.68 125.74 L828.92 122.43 L829.10 115.77 L832.36 113.11 L837.82 110.94 L839.23 109.00 L833.75 105.00 L825.71 102.92 L825.38 96.08 L830.34 88.51 L836.45 84.38 L841.55 84.32 L844.16 83.25 L845.78 84.21 Z" fill="#c084fc" stroke="#ffffff" stroke-width="1.4" data-name="Gümüşhane"/>
    <path d="M1162.62 274.17 L1163.23 276.28 L1161.49 279.50 L1163.21 280.41 L1168.43 278.53 L1174.64 278.99 L1179.74 275.92 L1183.77 271.58 L1186.03 272.39 L1187.76 274.77 L1184.16 279.13 L1187.57 281.52 L1187.79 283.57 L1186.41 285.02 L1186.89 289.45 L1185.52 291.80 L1189.27 292.85 L1190.95 295.51 L1193.71 295.96 L1199.34 300.35 L1200.00 302.43 L1196.52 305.59 L1198.19 310.34 L1196.07 309.12 L1187.72 307.92 L1179.81 313.75 L1169.75 316.52 L1170.66 317.96 L1167.83 321.67 L1164.63 320.68 L1163.05 317.94 L1163.26 316.47 L1160.46 313.47 L1162.97 309.80 L1164.61 309.89 L1165.96 308.65 L1165.26 304.82 L1162.66 302.14 L1156.68 299.85 L1149.87 299.26 L1145.96 301.66 L1144.75 303.62 L1141.30 304.93 L1126.93 305.16 L1116.56 302.81 L1112.61 298.79 L1112.53 286.90 L1116.23 274.07 L1127.51 274.83 L1134.31 274.15 L1141.08 275.76 L1145.90 274.11 L1151.88 274.69 L1160.41 271.47 L1162.62 274.17 Z" fill="#34d399" stroke="#ffffff" stroke-width="1.4" data-name="Hakkari"/>
    <path d="M658.57 336.87 L658.80 336.94 L658.80 336.97 L658.63 336.99 L658.57 336.87 Z M650.84 318.14 L662.93 319.07 L668.72 322.41 L674.69 322.53 L686.18 329.57 L688.84 329.83 L689.46 330.97 L686.24 334.78 L686.85 338.07 L683.80 342.39 L684.54 347.03 L681.60 351.10 L683.86 357.31 L685.96 357.72 L686.28 360.04 L685.04 361.56 L688.69 361.54 L689.00 363.28 L690.83 363.92 L691.10 366.54 L685.69 368.65 L683.53 367.68 L678.00 367.53 L676.47 369.58 L671.87 368.24 L672.06 370.23 L670.57 371.61 L671.89 376.97 L670.68 382.15 L668.53 382.69 L666.84 381.95 L665.63 382.73 L665.92 384.88 L660.30 385.25 L658.31 388.36 L658.44 392.50 L657.57 393.77 L654.27 390.63 L648.15 389.65 L648.42 386.94 L647.51 385.95 L642.96 387.30 L641.88 386.45 L645.67 381.02 L640.52 372.33 L633.24 363.51 L633.27 362.03 L635.46 359.65 L637.81 359.11 L638.25 357.44 L640.47 356.21 L641.32 354.34 L645.90 352.52 L649.29 348.80 L656.30 345.23 L659.16 344.90 L660.49 340.94 L659.04 338.07 L659.63 336.69 L658.70 336.57 L659.88 333.23 L656.28 328.68 L655.10 328.80 L655.79 328.24 L652.35 325.55 L648.05 323.98 L643.08 326.71 L643.53 327.48 L643.58 328.10 L641.58 326.15 L644.12 321.88 L649.59 318.01 L650.84 318.14 Z" fill="#f97316" stroke="#ffffff" stroke-width="1.4" data-name="Hatay"/>
    <path d="M1128.75 120.08 L1129.87 121.39 L1126.20 122.52 L1126.23 124.87 L1130.19 126.81 L1133.40 126.82 L1141.88 130.65 L1165.48 128.77 L1178.14 133.85 L1182.70 137.83 L1185.46 142.73 L1186.96 142.55 L1186.71 143.36 L1190.07 145.09 L1191.51 144.73 L1191.66 146.35 L1192.72 146.35 L1198.68 152.02 L1199.15 155.27 L1192.99 150.13 L1188.89 148.53 L1186.83 145.75 L1178.88 150.84 L1163.49 152.44 L1157.80 150.95 L1147.38 151.43 L1131.56 144.36 L1124.17 142.92 L1118.50 143.05 L1115.14 146.41 L1109.88 144.66 L1109.86 135.84 L1108.74 134.37 L1107.14 134.13 L1106.88 131.85 L1103.55 127.52 L1103.79 125.72 L1104.94 124.74 L1109.01 124.77 L1109.82 123.56 L1109.22 121.34 L1110.98 120.41 L1120.48 120.26 L1126.69 118.11 L1128.75 120.08 Z" fill="#facc15" stroke="#ffffff" stroke-width="1.4" data-name="Iğdır"/>
    <path d="M362.29 266.22 L362.19 270.90 L355.01 292.21 L354.21 293.04 L348.45 293.29 L345.22 295.21 L333.77 298.15 L328.71 296.29 L327.07 292.93 L319.28 286.71 L315.36 277.17 L312.14 275.75 L302.94 274.72 L297.26 271.16 L294.60 267.63 L291.46 267.20 L276.45 275.57 L274.30 275.23 L271.56 272.35 L272.03 271.26 L276.66 271.11 L282.22 268.28 L284.09 265.96 L282.80 263.19 L285.37 258.20 L288.00 256.00 L294.30 252.55 L303.76 245.34 L311.47 241.62 L321.45 238.84 L326.31 234.37 L340.46 224.66 L342.17 225.04 L347.08 229.47 L349.65 230.30 L349.21 232.89 L350.43 234.41 L372.51 249.52 L372.59 251.45 L371.49 252.94 L363.70 255.71 L360.68 258.84 L360.49 262.74 L362.29 266.22 Z" fill="#4ade80" stroke="#ffffff" stroke-width="1.4" data-name="Isparta"/>
    <path d="M215.91 80.43 L215.93 80.62 L215.68 80.46 L215.72 80.43 L215.91 80.43 Z M217.77 78.22 L218.05 78.62 L218.06 78.83 L217.56 78.57 L217.77 78.22 Z M208.50 77.56 L208.50 77.75 L208.22 77.83 L208.15 77.59 L208.50 77.56 Z M216.88 76.98 L217.51 77.35 L215.84 79.31 L215.46 77.90 L216.88 76.98 Z M207.09 76.90 L207.18 77.09 L206.85 77.09 L206.87 76.97 L207.09 76.90 Z M214.85 76.37 L215.30 77.16 L213.46 77.47 L213.49 77.09 L214.85 76.37 Z M213.63 76.30 L213.77 76.46 L213.56 76.64 L213.53 76.39 L213.63 76.30 Z M212.53 76.29 L213.04 76.39 L213.30 76.79 L212.08 76.93 L212.53 76.29 Z M212.01 74.53 L212.39 75.07 L211.60 75.33 L211.21 74.69 L212.01 74.53 Z M224.83 54.46 L245.59 58.57 L246.93 57.78 L251.00 59.09 L262.74 60.20 L264.05 63.43 L261.91 64.87 L255.64 65.87 L249.13 68.62 L239.83 66.96 L238.90 69.16 L235.81 70.81 L235.06 74.18 L230.58 76.02 L228.93 78.04 L225.14 78.27 L224.27 77.21 L217.82 75.42 L214.85 72.32 L210.74 71.31 L211.13 70.48 L210.13 70.57 L209.14 68.58 L209.32 67.58 L211.99 66.18 L212.90 62.76 L214.79 61.82 L213.21 60.24 L214.22 58.01 L219.12 55.14 L224.83 54.46 Z M158.63 35.02 L163.25 38.17 L185.67 47.28 L189.01 47.42 L195.27 50.29 L196.95 50.08 L206.64 53.35 L213.66 53.26 L215.77 54.29 L215.63 56.05 L211.11 59.44 L213.30 61.38 L212.34 64.08 L210.85 66.08 L207.27 67.85 L205.02 66.18 L205.56 65.59 L205.27 65.16 L204.78 66.36 L206.48 67.85 L207.94 68.13 L207.82 68.90 L204.81 69.12 L200.95 71.17 L199.39 70.81 L197.77 72.08 L194.01 70.36 L184.99 71.68 L183.42 70.86 L183.01 68.10 L181.48 68.13 L180.05 70.18 L171.65 66.36 L162.42 65.30 L160.78 64.34 L153.88 65.45 L149.76 59.76 L151.65 55.98 L155.62 54.03 L158.63 46.46 L160.67 37.96 L157.38 36.05 L158.63 35.02 Z" fill="#2dd4bf" stroke="#ffffff" stroke-width="1.4" data-name="İstanbul"/>
    <path d="M76.15 255.49 L76.36 255.59 L76.31 255.69 L76.08 255.71 L76.15 255.49 Z M84.44 254.15 L84.46 254.29 L84.34 254.29 L84.30 254.20 L84.44 254.15 Z M74.55 254.09 L74.51 254.23 L74.41 254.20 L74.43 254.11 L74.55 254.09 Z M71.28 247.42 L71.30 247.49 L71.18 247.66 L71.19 247.47 L71.28 247.42 Z M71.40 246.83 L71.24 247.10 L71.11 247.17 L71.14 246.88 L71.40 246.83 Z M48.40 245.21 L48.53 245.35 L48.48 245.57 L48.26 245.42 L48.40 245.21 Z M48.08 244.57 L48.13 244.91 L47.75 244.84 L47.77 244.76 L48.08 244.57 Z M69.12 244.43 L69.30 244.51 L69.28 244.60 L69.12 244.58 L69.12 244.43 Z M49.25 244.41 L49.02 244.74 L48.62 244.60 L48.69 244.46 L49.25 244.41 Z M34.01 238.36 L34.15 238.55 L34.15 238.83 L33.98 238.67 L34.01 238.36 Z M63.44 236.11 L63.49 236.34 L63.18 236.39 L63.16 236.22 L63.44 236.11 Z M49.39 233.94 L49.63 234.43 L49.32 234.53 L48.88 234.17 L49.39 233.94 Z M70.39 233.36 L70.55 233.54 L69.99 234.01 L70.08 233.49 L70.39 233.36 Z M50.15 233.09 L50.19 233.51 L49.86 233.57 L49.84 233.51 L50.15 233.09 Z M49.09 232.57 L49.19 232.76 L49.07 232.86 L48.99 232.62 L49.09 232.57 Z M49.11 232.29 L49.07 232.48 L48.93 232.53 L49.00 232.32 L49.11 232.29 Z M70.43 231.98 L70.57 232.24 L70.10 232.39 L70.04 232.22 L70.43 231.98 Z M50.34 232.10 L50.33 232.25 L50.27 231.94 L50.36 231.94 L50.34 232.10 Z M50.05 231.80 L50.29 232.50 L50.10 232.79 L49.86 232.25 L50.05 231.80 Z M51.73 231.63 L51.82 231.70 L51.66 231.75 L51.63 231.66 L51.73 231.63 Z M69.18 231.30 L69.40 231.51 L69.16 231.70 L69.05 231.31 L69.18 231.30 Z M70.78 231.00 L71.00 231.51 L70.62 231.56 L70.55 231.30 L70.78 231.00 Z M69.98 230.83 L70.13 230.95 L70.11 231.05 L69.82 230.97 L69.98 230.83 Z M40.27 230.50 L40.69 230.84 L40.59 231.07 L40.27 230.88 L40.27 230.50 Z M45.13 229.70 L45.35 230.58 L44.31 230.27 L44.34 229.98 L45.13 229.70 Z M44.10 229.59 L44.38 229.84 L44.01 230.27 L43.96 229.63 L44.10 229.59 Z M81.94 229.40 L81.82 229.82 L81.63 229.77 L81.80 229.35 L81.94 229.40 Z M78.77 228.95 L78.98 229.04 L79.04 229.16 L78.79 229.11 L78.77 228.95 Z M69.00 228.50 L69.56 229.40 L68.81 229.78 L68.50 228.67 L69.00 228.50 Z M43.49 228.45 L43.33 230.20 L41.72 230.55 L41.32 229.38 L43.49 228.45 Z M74.20 223.54 L74.46 223.61 L74.46 223.66 L74.11 223.56 L74.20 223.54 Z M74.74 223.56 L74.88 223.59 L74.97 223.51 L75.02 223.63 L74.67 223.59 L74.81 223.42 L74.74 223.56 Z M64.71 222.74 L66.62 223.84 L66.72 225.91 L67.89 226.85 L67.44 228.29 L64.43 226.98 L64.71 222.74 Z M72.20 222.85 L72.69 223.32 L72.67 223.73 L71.92 222.93 L72.20 222.85 Z M53.65 216.06 L53.82 216.17 L53.94 216.32 L53.66 216.19 L53.65 216.06 Z M53.44 215.47 L53.49 215.84 L52.93 215.87 L53.19 215.52 L53.44 215.47 Z M66.39 214.62 L66.64 214.81 L66.53 215.06 L66.24 214.78 L66.39 214.62 Z M65.92 214.55 L65.92 214.69 L65.51 214.81 L65.63 214.64 L65.92 214.55 Z M65.37 213.00 L66.36 213.61 L66.22 214.01 L65.33 213.70 L65.37 213.00 Z M65.35 212.15 L65.40 212.34 L65.28 212.50 L65.26 212.34 L65.35 212.15 Z M66.90 211.06 L66.93 211.19 L66.78 211.14 L66.81 211.07 L66.90 211.06 Z M76.25 203.39 L76.53 203.94 L75.82 203.96 L75.82 203.66 L76.25 203.39 Z M76.86 202.76 L76.91 202.87 L76.79 203.04 L76.76 202.90 L76.86 202.76 Z M86.08 201.65 L85.96 201.60 L86.15 201.51 L86.15 201.63 L86.08 201.65 Z M73.18 200.12 L73.51 200.41 L73.49 200.60 L73.09 200.40 L73.18 200.12 Z M71.71 198.94 L72.65 199.23 L72.44 199.98 L71.44 199.60 L71.71 198.94 Z M71.31 198.31 L71.45 198.47 L71.45 198.54 L71.26 198.43 L71.31 198.31 Z M70.97 193.70 L70.84 194.54 L70.57 194.64 L70.60 193.87 L70.97 193.70 Z M70.25 193.63 L70.32 194.03 L70.04 194.40 L69.82 193.86 L70.25 193.63 Z M113.05 183.64 L115.14 187.04 L115.20 193.16 L110.73 196.47 L107.82 197.41 L106.73 198.98 L94.09 201.18 L91.83 206.49 L91.36 208.19 L98.04 210.72 L101.09 221.19 L104.75 220.18 L112.23 221.73 L118.96 226.56 L130.06 229.03 L134.98 235.05 L137.00 236.11 L146.23 231.99 L153.52 231.79 L155.25 232.46 L156.26 234.42 L160.12 235.98 L173.31 238.53 L175.85 241.07 L179.17 248.54 L181.22 250.20 L161.76 255.82 L150.67 255.16 L143.27 256.59 L142.33 255.86 L141.38 257.31 L132.13 258.74 L128.65 257.91 L116.86 258.03 L111.22 262.26 L105.76 263.81 L100.99 263.80 L99.89 262.48 L100.77 260.48 L99.12 258.18 L97.16 257.49 L92.51 258.02 L89.76 256.04 L88.29 256.22 L86.58 253.87 L82.53 252.36 L77.17 253.16 L75.07 255.22 L72.57 247.10 L70.76 246.15 L69.47 246.91 L69.30 244.69 L70.44 244.55 L68.38 243.10 L66.85 244.06 L60.78 244.03 L60.05 248.34 L58.72 248.03 L59.45 250.06 L57.99 250.58 L56.71 248.08 L56.05 249.66 L54.13 249.00 L52.99 246.63 L53.39 245.30 L52.60 246.04 L51.46 245.56 L51.68 244.76 L49.65 245.02 L48.62 243.31 L47.23 243.16 L47.84 243.97 L47.96 244.55 L47.87 244.60 L45.32 243.05 L46.12 241.68 L45.44 240.67 L44.66 240.55 L45.21 241.52 L43.93 242.79 L41.93 242.88 L38.83 240.41 L35.46 240.34 L35.58 238.58 L37.98 238.84 L38.55 236.74 L39.91 236.93 L38.81 235.59 L38.78 233.44 L39.75 234.77 L40.74 233.45 L40.92 236.34 L42.55 236.08 L42.55 237.02 L44.66 237.66 L45.02 235.17 L46.12 236.76 L51.16 233.47 L50.74 231.87 L49.21 230.20 L51.65 231.91 L53.26 230.20 L48.38 227.16 L45.56 229.05 L46.76 226.06 L44.22 223.84 L44.45 223.09 L44.80 224.24 L44.80 222.95 L43.49 221.51 L43.06 217.02 L43.54 215.70 L47.02 214.38 L50.66 214.74 L53.73 216.31 L53.72 217.52 L56.17 219.28 L56.60 221.98 L60.10 223.75 L61.11 227.63 L57.77 227.56 L58.83 228.74 L57.56 230.31 L59.25 230.57 L61.25 233.49 L61.30 235.73 L63.14 237.47 L64.98 236.98 L63.23 235.23 L63.40 234.44 L63.84 235.07 L64.05 234.98 L63.19 232.72 L65.25 229.80 L67.07 230.17 L68.95 234.04 L71.58 234.76 L84.63 230.83 L89.00 232.06 L91.00 231.31 L92.84 228.98 L94.25 229.38 L93.52 227.78 L90.56 228.91 L88.53 227.77 L85.24 227.73 L81.96 228.51 L80.34 229.98 L80.55 229.24 L78.53 228.64 L78.70 227.73 L76.34 225.23 L73.28 224.31 L72.81 224.01 L76.55 225.04 L76.22 223.52 L74.06 223.02 L73.99 221.98 L73.71 222.55 L72.48 222.55 L73.97 221.92 L73.52 220.22 L72.95 220.81 L71.04 218.76 L68.36 218.48 L69.14 217.19 L66.18 216.22 L68.15 215.37 L66.71 214.78 L67.35 214.38 L66.45 211.84 L67.49 211.21 L67.30 210.57 L69.82 210.86 L72.55 209.28 L73.30 210.55 L74.69 209.86 L76.97 211.07 L77.75 209.02 L79.14 209.68 L79.75 209.06 L76.84 205.35 L78.18 205.84 L80.08 204.64 L79.97 206.17 L81.63 206.67 L82.58 205.51 L81.21 204.99 L81.77 204.05 L85.17 202.38 L84.79 203.04 L85.73 203.42 L87.71 202.10 L86.79 200.85 L85.90 201.07 L87.14 199.84 L86.30 198.10 L83.96 199.47 L84.69 199.82 L81.66 198.99 L80.88 198.31 L81.59 197.89 L79.61 198.31 L79.78 199.06 L78.53 198.17 L74.69 199.80 L74.17 198.55 L71.12 197.49 L70.88 194.64 L72.04 192.78 L70.97 193.46 L70.98 192.38 L76.53 189.68 L73.28 185.51 L68.83 183.56 L80.90 178.16 L94.63 168.02 L109.09 170.52 L112.28 175.91 L113.05 183.64 Z" fill="#38bdf8" stroke="#ffffff" stroke-width="1.4" data-name="İzmir"/>
    <path d="M712.03 219.79 L713.33 220.81 L727.64 219.70 L726.74 222.30 L721.79 226.15 L721.97 228.14 L732.23 227.87 L738.10 228.71 L753.36 234.59 L758.03 237.59 L757.92 243.14 L749.33 262.22 L742.50 271.24 L735.48 276.72 L736.29 281.75 L745.46 285.15 L748.58 287.55 L748.27 292.99 L744.36 295.65 L721.22 298.77 L715.17 301.92 L712.61 304.92 L710.26 306.00 L707.39 305.03 L705.24 298.00 L703.67 296.65 L692.60 302.33 L687.74 298.95 L683.47 294.24 L677.59 296.52 L670.69 297.76 L662.96 296.86 L660.31 287.24 L663.85 283.15 L669.51 272.95 L669.53 271.11 L666.96 267.49 L666.71 264.17 L667.98 257.22 L673.83 240.86 L683.60 232.29 L689.47 225.45 L691.72 220.33 L704.61 217.66 L712.03 219.79 Z" fill="#6366f1" stroke="#ffffff" stroke-width="1.4" data-name="Kahramanmaraş"/>
    <path d="M457.48 36.63 L461.98 43.13 L459.86 45.99 L456.11 48.31 L454.10 51.35 L454.00 55.77 L454.65 56.98 L459.90 59.55 L464.01 63.64 L460.93 68.17 L439.89 71.84 L429.08 79.27 L426.93 77.05 L414.23 72.89 L414.43 68.68 L402.33 68.05 L403.44 61.37 L404.97 59.34 L409.26 56.80 L415.47 54.32 L423.40 53.28 L434.72 47.94 L437.69 45.54 L440.27 40.15 L443.88 38.58 L446.26 36.20 L448.11 37.08 L454.52 34.52 L457.48 36.63 Z" fill="#a855f7" stroke="#ffffff" stroke-width="1.4" data-name="Karabük"/>
    <path d="M511.12 295.72 L515.83 299.48 L517.60 302.55 L527.96 304.52 L534.15 308.45 L527.57 311.38 L521.14 311.68 L513.48 315.78 L506.15 317.85 L498.78 316.65 L492.33 319.42 L483.51 319.66 L466.43 328.85 L456.79 331.55 L461.68 339.83 L465.22 342.50 L472.80 345.67 L473.61 347.20 L472.52 349.49 L462.60 352.87 L446.40 355.21 L437.78 354.29 L431.27 350.40 L428.12 347.09 L425.15 340.01 L426.03 335.19 L434.64 333.09 L443.41 328.94 L447.27 325.18 L435.16 322.81 L432.00 320.33 L431.90 318.79 L437.14 313.76 L439.51 309.75 L439.86 306.35 L444.71 304.96 L449.23 306.31 L452.92 306.23 L450.59 302.01 L454.02 296.48 L462.72 295.31 L466.17 291.51 L468.41 291.04 L471.78 291.23 L477.73 295.98 L481.33 296.11 L483.50 294.74 L485.56 289.69 L489.61 285.68 L499.58 281.78 L504.64 281.54 L511.12 295.72 Z" fill="#ec4899" stroke="#ffffff" stroke-width="1.4" data-name="Karaman"/>
    <path d="M1122.72 70.10 L1127.53 73.73 L1127.52 78.94 L1129.83 80.98 L1132.07 85.73 L1131.29 87.49 L1132.15 89.20 L1127.47 95.53 L1125.39 96.81 L1125.76 98.53 L1124.75 98.16 L1124.44 99.28 L1119.35 101.94 L1123.94 105.63 L1122.36 110.69 L1125.25 114.49 L1127.87 115.62 L1127.89 117.41 L1121.20 120.15 L1110.98 120.41 L1109.22 121.34 L1109.82 123.56 L1109.01 124.77 L1104.41 124.97 L1103.49 127.36 L1106.88 131.85 L1107.14 134.13 L1091.66 131.28 L1067.10 136.96 L1061.89 136.81 L1058.05 135.09 L1053.83 129.22 L1045.60 123.57 L1035.47 121.38 L1031.24 115.82 L1031.98 113.67 L1039.61 112.00 L1054.81 106.10 L1056.31 103.99 L1058.30 94.86 L1056.91 91.69 L1060.86 91.73 L1066.71 89.14 L1074.93 87.13 L1077.03 83.58 L1077.26 78.42 L1079.49 74.12 L1084.79 71.59 L1092.25 70.17 L1098.91 67.59 L1101.53 63.93 L1101.71 59.47 L1102.76 57.73 L1108.07 56.53 L1112.57 57.97 L1114.70 61.08 L1113.36 63.43 L1114.76 67.45 L1122.72 70.10 Z" fill="#f87171" stroke="#ffffff" stroke-width="1.4" data-name="Kars"/>
    <path d="M480.38 5.32 L501.65 7.83 L524.71 7.72 L535.96 9.41 L535.90 14.49 L538.50 18.80 L538.62 22.93 L552.65 23.82 L559.30 27.32 L559.10 29.45 L557.28 32.11 L550.90 35.34 L551.55 50.18 L548.97 50.04 L546.49 51.85 L539.99 58.72 L534.96 66.69 L535.93 68.66 L539.25 70.68 L539.17 73.76 L524.03 78.53 L515.07 75.99 L510.75 74.25 L508.52 72.25 L508.71 69.46 L513.06 65.89 L512.90 64.33 L511.01 63.11 L487.30 71.56 L483.33 71.64 L472.65 65.30 L468.46 63.75 L464.01 63.64 L458.65 58.58 L454.65 56.98 L453.78 51.96 L456.11 48.31 L459.86 45.99 L461.98 43.13 L456.21 34.99 L448.37 31.91 L444.23 23.36 L439.21 16.95 L453.80 14.52 L460.89 11.15 L469.76 9.39 L480.38 5.32 Z" fill="#fb7185" stroke="#ffffff" stroke-width="1.4" data-name="Kastamonu"/>
    <path d="M643.74 181.83 L647.78 185.13 L651.24 186.27 L666.23 186.25 L670.40 184.80 L675.74 186.24 L684.76 183.41 L695.65 183.44 L702.64 186.19 L706.13 190.83 L694.46 214.79 L692.83 220.01 L690.75 221.18 L689.26 225.75 L678.86 236.79 L677.75 237.20 L676.62 235.93 L672.55 228.48 L666.10 227.98 L656.18 231.83 L647.48 245.65 L627.01 253.27 L623.26 259.78 L611.75 262.04 L601.02 259.56 L603.92 254.46 L603.86 246.43 L601.88 243.14 L599.16 241.06 L592.04 240.79 L588.36 239.34 L583.99 230.61 L579.53 229.95 L578.67 228.09 L578.62 225.41 L579.80 223.31 L585.51 221.61 L588.77 218.60 L588.70 210.16 L581.45 207.03 L584.52 193.58 L586.72 192.02 L589.39 192.05 L599.48 194.05 L614.62 188.17 L613.43 184.59 L613.92 182.71 L626.77 181.68 L635.26 175.66 L639.81 177.11 L643.74 181.83 Z" fill="#c084fc" stroke="#ffffff" stroke-width="1.4" data-name="Kayseri"/>
    <path d="M736.86 333.29 L741.42 341.18 L739.95 342.08 L718.65 340.69 L717.22 340.93 L715.28 343.17 L711.34 340.86 L713.09 336.87 L706.10 333.30 L697.33 332.22 L695.93 330.63 L697.43 328.84 L703.95 325.70 L707.85 320.00 L710.42 318.95 L717.41 318.97 L721.05 320.49 L724.63 328.03 L736.86 333.29 Z" fill="#34d399" stroke="#ffffff" stroke-width="1.4" data-name="Kilis"/>
    <path d="M516.64 115.43 L526.73 117.75 L528.38 123.59 L534.21 129.47 L525.50 135.06 L526.09 143.80 L516.20 150.22 L512.75 159.14 L509.35 162.18 L506.77 166.57 L501.72 166.62 L495.79 170.55 L492.23 178.45 L485.28 184.32 L482.07 180.28 L483.61 177.04 L482.30 174.55 L477.12 173.72 L473.78 170.82 L477.05 165.49 L480.37 149.59 L481.89 146.90 L486.01 143.66 L496.94 138.57 L497.95 134.41 L495.27 128.79 L498.14 122.07 L503.48 115.60 L507.33 113.98 L516.64 115.43 Z" fill="#f97316" stroke="#ffffff" stroke-width="1.4" data-name="Kırıkkale"/>
    <path d="M99.48 0.00 L104.18 1.33 L104.83 2.71 L107.16 3.50 L109.60 7.22 L115.43 9.68 L118.09 12.88 L119.09 12.47 L118.46 12.01 L119.16 10.57 L125.41 9.57 L126.92 8.29 L129.21 8.31 L133.80 10.62 L135.36 10.02 L134.46 7.86 L136.90 6.81 L140.08 8.57 L148.13 7.41 L149.79 13.91 L146.82 13.23 L145.90 13.63 L144.32 15.22 L145.90 19.28 L148.80 22.08 L148.73 23.42 L152.78 27.30 L151.81 27.70 L151.88 29.23 L155.53 32.86 L144.78 35.19 L137.81 37.85 L131.79 37.35 L129.32 38.25 L125.80 40.54 L125.73 43.54 L123.83 47.35 L118.22 54.39 L116.18 55.36 L113.15 55.02 L107.19 49.79 L99.98 47.45 L78.21 48.35 L76.16 46.40 L76.24 43.78 L83.61 33.84 L83.40 30.22 L78.66 28.12 L77.91 26.64 L80.52 23.41 L81.68 18.33 L82.87 11.74 L81.81 8.00 L82.51 4.52 L84.79 3.43 L85.32 1.52 L87.93 0.82 L96.68 2.53 L96.59 1.34 L99.48 0.00 Z" fill="#facc15" stroke="#ffffff" stroke-width="1.4" data-name="Kırklareli"/>
    <path d="M535.97 147.97 L544.15 147.55 L548.43 148.51 L551.11 152.33 L555.90 155.46 L554.67 159.49 L562.88 163.94 L560.00 170.58 L559.92 173.92 L563.21 174.51 L567.26 171.81 L569.02 172.40 L564.77 177.51 L565.15 180.62 L560.92 183.54 L561.61 188.33 L557.31 189.46 L557.89 192.52 L554.38 194.99 L551.54 199.54 L551.39 201.50 L548.57 202.17 L543.03 201.57 L541.24 203.02 L540.75 205.93 L538.22 207.32 L535.68 205.94 L532.85 201.79 L526.64 200.44 L520.64 196.59 L517.19 193.90 L518.08 192.04 L496.61 183.67 L492.23 178.45 L495.79 170.55 L501.72 166.62 L506.77 166.57 L509.35 162.18 L512.75 159.14 L515.98 150.53 L519.48 147.60 L526.09 143.80 L535.97 147.97 Z" fill="#4ade80" stroke="#ffffff" stroke-width="1.4" data-name="Kırşehir"/>
    <path d="M288.46 55.92 L293.24 57.12 L295.00 59.02 L294.65 60.86 L291.44 62.88 L289.43 67.93 L294.09 72.31 L295.00 77.40 L294.32 78.57 L289.54 80.40 L290.12 84.49 L285.68 92.46 L280.96 92.87 L272.57 95.58 L265.19 95.50 L256.76 93.40 L244.84 96.95 L237.10 97.05 L235.75 96.73 L235.87 89.27 L240.98 85.40 L241.42 86.69 L240.53 86.89 L243.99 88.83 L259.57 86.09 L266.16 87.10 L267.42 86.74 L267.62 84.49 L257.76 85.42 L254.55 83.49 L247.28 82.81 L244.50 83.85 L239.40 82.96 L230.97 84.53 L229.54 80.70 L224.86 81.56 L224.69 80.79 L227.09 79.64 L225.72 79.73 L225.38 79.05 L226.25 79.43 L229.46 77.78 L230.58 76.02 L235.06 74.18 L235.81 70.81 L238.90 69.16 L239.83 66.96 L249.61 68.54 L255.64 65.87 L263.60 64.19 L264.04 62.69 L262.83 60.31 L280.93 60.58 L283.47 59.98 L283.41 59.05 L285.52 59.07 L285.38 57.54 L287.08 57.52 L288.46 55.92 Z M287.90 55.58 L287.64 55.79 L287.38 55.73 L287.48 55.58 L287.90 55.58 Z" fill="#2dd4bf" stroke="#ffffff" stroke-width="1.4" data-name="Kocaeli"/>
    <path d="M473.61 180.50 L482.59 192.03 L481.85 207.44 L488.29 217.16 L481.97 223.37 L478.05 235.28 L474.21 241.53 L474.40 244.39 L481.87 256.78 L485.37 260.27 L490.17 261.23 L508.40 259.70 L526.43 256.21 L531.04 256.56 L542.24 265.99 L550.02 275.74 L550.15 279.07 L546.65 284.83 L545.57 290.01 L545.83 291.19 L548.09 291.65 L551.96 294.84 L553.96 298.75 L552.78 299.96 L542.62 304.46 L541.76 305.71 L534.15 308.45 L527.96 304.52 L517.46 302.45 L515.83 299.48 L511.12 295.72 L504.64 281.54 L499.58 281.78 L488.75 286.28 L484.64 291.16 L483.50 294.74 L481.72 295.97 L477.73 295.98 L471.78 291.23 L466.91 291.16 L462.72 295.31 L456.30 295.59 L452.74 297.53 L450.57 302.36 L452.92 306.23 L449.23 306.31 L444.71 304.96 L439.57 306.56 L439.10 310.67 L436.35 314.72 L432.13 318.48 L431.89 320.16 L435.57 322.98 L447.27 325.18 L443.41 328.94 L434.64 333.09 L426.03 335.19 L422.71 330.41 L414.80 328.94 L411.16 319.59 L386.98 301.56 L379.54 299.10 L362.77 298.23 L357.43 296.43 L354.21 293.04 L356.38 289.48 L356.87 285.18 L362.19 270.90 L362.29 266.22 L360.61 263.24 L360.54 259.16 L363.70 255.71 L371.49 252.94 L372.71 250.39 L370.69 247.92 L349.98 234.04 L349.26 231.23 L349.65 230.30 L376.50 217.40 L372.21 214.75 L370.87 211.58 L372.99 205.82 L378.34 197.30 L377.60 188.58 L381.48 189.68 L385.88 188.14 L387.85 183.89 L389.26 183.52 L394.90 187.87 L403.67 192.44 L415.01 190.14 L426.13 194.74 L431.38 191.29 L440.57 192.35 L443.04 189.27 L449.03 184.79 L452.45 184.74 L456.84 186.49 L460.53 184.43 L462.63 180.70 L466.39 180.58 L470.93 177.08 L473.61 180.50 Z" fill="#38bdf8" stroke="#ffffff" stroke-width="1.4" data-name="Konya"/>
    <path d="M244.01 138.61 L251.15 137.72 L252.15 139.33 L251.76 142.73 L254.02 148.02 L268.37 151.70 L278.89 150.30 L283.08 150.79 L280.01 155.36 L291.07 164.14 L291.23 171.38 L297.34 176.43 L299.75 181.51 L299.31 183.04 L295.45 186.50 L287.70 189.43 L282.08 200.50 L277.77 206.46 L266.23 212.13 L264.76 212.58 L264.56 207.54 L262.78 203.47 L251.86 201.26 L245.95 202.18 L240.32 204.70 L227.87 208.03 L223.40 211.10 L214.46 210.72 L211.05 211.45 L210.83 203.71 L209.44 202.34 L208.12 197.10 L206.10 193.86 L201.64 189.70 L189.74 186.85 L187.62 184.15 L187.57 179.77 L195.83 176.64 L201.46 171.45 L205.05 161.86 L204.70 159.92 L206.47 157.52 L210.11 159.49 L214.55 160.37 L223.13 159.49 L224.24 158.02 L225.49 151.04 L229.83 145.82 L234.24 137.65 L237.07 136.53 L244.01 138.61 Z" fill="#6366f1" stroke="#ffffff" stroke-width="1.4" data-name="Kütahya"/>
    <path d="M798.95 187.11 L804.96 187.21 L810.82 189.43 L813.28 191.23 L814.87 194.12 L810.57 193.73 L808.98 195.74 L811.71 202.13 L811.61 210.04 L803.21 210.43 L801.13 211.40 L793.93 220.31 L795.93 224.94 L799.10 227.27 L805.08 228.08 L815.02 231.21 L824.10 231.84 L832.83 237.67 L842.25 235.83 L843.69 239.14 L842.49 244.64 L839.46 247.93 L835.11 249.65 L825.96 251.22 L813.21 251.27 L807.43 249.21 L811.27 246.41 L811.91 244.54 L806.35 242.61 L801.68 243.35 L780.63 251.41 L783.52 262.08 L770.51 265.76 L761.19 264.43 L757.76 265.37 L755.74 267.39 L751.12 267.32 L744.53 268.98 L753.25 254.63 L758.04 242.79 L758.03 237.59 L753.36 234.59 L738.53 228.82 L732.23 227.87 L722.30 228.28 L721.79 226.15 L726.74 222.30 L727.93 219.47 L740.01 212.80 L745.51 208.40 L746.92 204.64 L744.19 199.04 L744.14 196.95 L746.40 193.78 L758.44 194.34 L768.40 190.71 L783.06 189.96 L791.44 185.74 L798.95 187.11 Z" fill="#a855f7" stroke="#ffffff" stroke-width="1.4" data-name="Malatya"/>
    <path d="M126.09 172.69 L133.11 172.04 L138.75 172.77 L139.69 172.04 L140.98 173.81 L138.80 177.53 L139.64 179.63 L144.81 180.10 L146.84 181.22 L149.74 183.61 L153.22 190.47 L155.71 191.59 L175.38 186.65 L185.02 183.03 L187.62 184.15 L190.49 187.27 L199.75 188.99 L203.53 190.99 L207.98 196.79 L211.05 205.04 L211.05 211.45 L201.18 217.10 L199.24 220.92 L198.79 226.33 L199.77 232.30 L197.84 234.76 L203.82 240.39 L196.35 243.30 L195.59 248.12 L191.22 250.79 L188.92 249.82 L181.22 250.20 L179.17 248.54 L175.85 241.07 L173.31 238.53 L160.12 235.98 L156.26 234.42 L155.25 232.46 L153.52 231.79 L146.23 231.99 L137.00 236.11 L134.98 235.05 L130.06 229.03 L118.96 226.56 L112.23 221.73 L104.75 220.18 L101.09 221.19 L97.94 210.58 L91.36 208.19 L94.09 201.18 L106.73 198.98 L107.82 197.41 L110.73 196.47 L115.20 193.16 L115.14 187.04 L113.05 183.64 L112.28 175.91 L109.09 170.52 L115.90 168.50 L121.92 171.86 L126.09 172.69 Z" fill="#ec4899" stroke="#ffffff" stroke-width="1.4" data-name="Manisa"/>
    <path d="M947.61 274.70 L963.24 273.31 L963.39 274.92 L968.35 279.70 L971.83 284.75 L987.92 284.90 L995.88 283.46 L1002.97 277.30 L1014.70 273.27 L1019.93 279.69 L1018.44 282.93 L1019.42 286.71 L1016.46 288.41 L1007.80 289.60 L1006.37 290.29 L1006.20 291.86 L1006.26 298.51 L1007.35 301.03 L1008.77 301.58 L1013.10 300.38 L1014.37 302.32 L1015.58 306.51 L1014.41 310.91 L994.93 314.27 L976.96 314.65 L973.67 315.63 L970.62 313.83 L956.86 311.82 L952.85 311.83 L950.63 312.93 L946.33 312.06 L931.59 317.94 L924.82 319.06 L913.37 324.86 L908.76 322.94 L905.68 318.14 L904.58 311.41 L893.67 293.67 L889.97 284.78 L898.48 284.78 L903.31 282.73 L910.33 284.12 L914.95 283.97 L923.57 279.18 L929.70 278.89 L930.89 277.34 L931.38 273.70 L935.08 270.30 L937.94 271.64 L942.20 271.93 L944.47 273.89 L947.61 274.70 Z" fill="#f87171" stroke="#ffffff" stroke-width="1.4" data-name="Mardin"/>
    <path d="M492.38 374.13 L492.66 374.60 L492.28 374.74 L492.45 374.45 L492.38 374.13 Z M502.68 372.12 L502.89 372.17 L502.89 372.24 L502.49 372.15 L502.68 372.12 Z M507.98 369.63 L507.82 370.67 L506.56 370.80 L506.87 370.31 L507.98 369.63 Z M511.02 365.35 L511.08 365.49 L510.90 365.65 L510.87 365.47 L511.02 365.35 Z M579.05 311.49 L580.29 314.79 L584.43 317.01 L587.80 321.46 L588.75 330.04 L586.56 333.95 L581.24 335.01 L578.72 336.90 L575.23 333.37 L569.54 331.53 L562.72 331.65 L556.88 334.10 L555.91 335.70 L551.37 337.86 L548.69 340.66 L539.21 345.55 L532.33 352.99 L529.37 354.00 L528.69 355.58 L526.74 356.52 L526.33 362.31 L524.50 363.75 L521.60 363.18 L520.31 364.93 L521.65 364.33 L521.72 364.40 L519.44 367.70 L517.88 364.08 L513.65 362.41 L511.28 364.36 L511.82 364.99 L510.19 365.07 L509.82 367.18 L502.90 371.33 L502.21 372.24 L502.99 373.25 L502.35 373.79 L501.25 373.06 L501.96 372.34 L500.45 372.19 L500.57 370.52 L499.74 370.08 L496.30 371.16 L494.30 374.36 L488.85 372.24 L483.88 374.39 L481.24 372.55 L477.29 374.13 L468.35 373.58 L467.01 374.06 L464.28 377.86 L462.42 376.27 L456.06 375.72 L450.96 377.79 L446.86 381.25 L439.10 379.80 L432.01 375.96 L434.16 373.50 L436.18 368.07 L437.07 364.31 L436.38 358.20 L437.78 354.29 L449.20 355.10 L462.60 352.87 L472.52 349.49 L473.61 347.20 L472.80 345.67 L465.22 342.50 L461.68 339.83 L456.79 331.55 L466.43 328.85 L479.76 321.11 L483.96 319.57 L492.33 319.42 L498.06 316.73 L501.72 316.68 L505.54 317.94 L511.57 316.46 L520.76 311.81 L530.38 310.65 L541.76 305.71 L542.62 304.46 L552.51 300.20 L553.96 298.75 L553.70 297.74 L559.33 297.61 L566.05 294.83 L570.82 294.82 L579.05 311.49 Z" fill="#fb7185" stroke="#ffffff" stroke-width="1.4" data-name="Mersin"/>
    <path d="M212.52 348.28 L212.64 348.36 L212.55 348.48 L212.45 348.41 L212.52 348.28 Z M213.28 347.44 L213.53 347.56 L212.78 347.51 L212.88 347.44 L213.28 347.44 Z M148.42 347.21 L148.45 347.44 L148.37 347.49 L148.31 347.34 L148.42 347.21 Z M148.71 346.94 L148.58 347.08 L148.40 347.09 L148.45 346.97 L148.71 346.94 Z M154.12 344.61 L154.24 344.92 L153.79 344.80 L153.84 344.69 L154.12 344.61 Z M149.72 343.46 L149.78 343.60 L149.50 343.82 L149.64 343.46 L149.72 343.46 Z M149.48 342.94 L149.51 343.02 L149.53 343.20 L149.34 343.13 L149.48 342.94 Z M193.98 342.85 L194.07 342.97 L193.84 343.02 L193.82 342.95 L193.98 342.85 Z M149.58 341.51 L149.91 341.58 L149.93 341.69 L149.22 341.63 L149.58 341.51 Z M215.40 341.32 L215.00 341.77 L214.86 341.75 L214.92 341.35 L215.40 341.32 Z M115.52 340.71 L115.62 340.83 L115.45 341.23 L115.34 340.94 L115.52 340.71 Z M211.68 340.61 L212.17 340.87 L211.47 341.41 L211.35 340.80 L211.68 340.61 Z M147.06 340.26 L147.06 340.47 L146.98 340.49 L146.89 340.29 L147.06 340.26 Z M202.26 340.24 L202.97 340.59 L203.00 341.44 L201.80 340.52 L202.26 340.24 Z M148.44 340.19 L149.06 341.13 L148.77 341.55 L147.90 340.90 L148.44 340.19 Z M210.66 340.15 L211.02 340.35 L211.06 340.47 L210.64 340.38 L210.66 340.15 Z M148.80 340.07 L148.78 340.35 L148.68 340.36 L148.63 340.14 L148.80 340.07 Z M203.56 339.53 L204.99 340.03 L203.44 341.25 L203.09 340.14 L203.56 339.53 Z M148.91 339.53 L148.84 339.46 L148.99 339.42 L148.99 339.48 L148.91 339.53 Z M189.88 338.71 L189.88 338.85 L189.39 338.89 L189.51 338.75 L189.88 338.71 Z M204.57 338.56 L204.64 338.73 L204.52 338.76 L204.45 338.62 L204.57 338.56 Z M209.14 338.45 L209.63 338.64 L209.60 338.80 L209.14 338.78 L209.14 338.45 Z M204.27 338.38 L204.41 338.59 L204.13 338.83 L203.96 338.47 L204.27 338.38 Z M145.43 338.09 L145.57 338.22 L145.53 338.33 L145.38 338.28 L145.43 338.09 Z M204.69 337.84 L204.74 338.16 L204.52 338.47 L204.60 337.93 L204.69 337.84 Z M145.98 337.76 L146.05 337.81 L145.90 337.95 L145.83 337.82 L145.98 337.76 Z M204.59 337.63 L204.59 337.89 L204.50 337.93 L204.36 337.77 L204.59 337.63 Z M161.72 337.48 L161.65 337.63 L161.36 337.53 L161.48 337.48 L161.72 337.48 Z M146.28 337.13 L146.44 337.27 L146.45 337.56 L146.16 337.27 L146.28 337.13 Z M148.28 336.73 L148.16 337.27 L147.10 337.65 L147.11 336.99 L148.28 336.73 Z M149.43 336.17 L149.81 336.29 L150.18 336.21 L150.33 336.28 L149.97 336.73 L148.99 336.82 L149.43 336.17 Z M205.00 336.07 L205.67 336.80 L204.92 337.29 L204.62 336.89 L205.00 336.07 Z M108.95 335.70 L109.45 335.96 L109.48 336.03 L108.88 335.81 L108.95 335.70 Z M143.81 335.08 L144.05 335.13 L144.02 335.29 L143.83 335.23 L143.81 335.08 Z M133.12 335.06 L133.15 335.11 L133.05 335.18 L133.03 335.11 L133.12 335.06 Z M131.43 335.04 L131.29 335.16 L131.08 335.18 L131.13 335.09 L131.43 335.04 Z M132.14 334.83 L132.14 335.04 L132.00 335.13 L131.97 334.96 L132.14 334.83 Z M134.12 334.59 L134.16 334.68 L133.93 334.78 L133.99 334.61 L134.12 334.59 Z M149.90 334.52 L149.83 334.68 L149.67 334.66 L149.74 334.52 L149.90 334.52 Z M148.31 334.49 L148.51 334.57 L148.51 334.64 L148.26 334.62 L148.31 334.49 Z M153.91 334.45 L154.12 334.52 L154.11 334.61 L153.95 334.57 L153.91 334.45 Z M112.88 333.96 L113.00 334.05 L113.00 334.12 L112.82 334.03 L112.88 333.96 Z M112.41 333.69 L112.65 333.86 L112.63 333.96 L112.28 333.81 L112.41 333.69 Z M173.77 333.56 L173.88 333.91 L173.15 333.98 L173.51 333.53 L173.77 333.56 Z M183.67 332.28 L183.58 332.42 L183.44 332.40 L183.51 332.29 L183.67 332.28 Z M162.37 331.51 L162.43 332.26 L161.39 331.63 L162.02 331.67 L162.37 331.51 Z M164.21 330.80 L164.19 330.94 L163.58 330.90 L163.60 330.83 L164.21 330.80 Z M174.02 328.07 L174.09 328.19 L174.09 328.24 L173.96 328.17 L174.02 328.07 Z M147.81 327.83 L147.90 328.00 L147.29 327.88 L147.29 327.84 L147.81 327.83 Z M148.51 327.65 L148.51 327.74 L148.18 327.86 L148.31 327.70 L148.51 327.65 Z M148.82 327.34 L148.99 327.36 L149.01 327.46 L148.82 327.55 L148.82 327.34 Z M148.33 326.77 L148.44 326.87 L148.31 326.96 L148.28 326.78 L148.33 326.77 Z M155.91 323.51 L156.04 323.70 L155.86 323.77 L155.76 323.63 L155.91 323.51 Z M155.84 322.99 L155.98 323.04 L155.93 323.13 L155.81 323.11 L155.84 322.99 Z M102.74 322.59 L102.75 322.68 L102.63 322.75 L102.56 322.63 L102.74 322.59 Z M158.59 321.88 L158.70 322.19 L158.02 322.24 L158.26 322.00 L158.59 321.88 Z M119.83 321.04 L119.74 320.97 L119.97 320.94 L119.94 321.01 L119.83 321.04 Z M124.61 320.87 L124.72 320.94 L124.72 321.01 L124.58 320.92 L124.61 320.87 Z M120.47 320.85 L121.14 321.15 L121.26 321.70 L120.61 321.58 L120.47 320.85 Z M98.08 320.42 L98.13 320.49 L98.16 320.77 L97.90 320.66 L98.08 320.42 Z M95.94 320.00 L96.04 320.05 L96.02 320.14 L95.82 320.09 L95.94 320.00 Z M159.08 319.88 L159.31 320.19 L158.71 320.17 L158.80 320.02 L159.08 319.88 Z M110.37 319.76 L113.87 321.01 L114.41 321.65 L113.40 322.24 L111.47 321.50 L110.37 319.76 Z M159.24 319.64 L159.29 319.79 L158.99 319.74 L159.01 319.64 L159.24 319.64 Z M107.68 319.50 L107.78 319.77 L107.61 320.23 L107.33 319.93 L107.68 319.50 Z M161.27 319.39 L161.30 319.51 L161.06 319.48 L161.06 319.43 L161.27 319.39 Z M94.89 319.22 L95.05 319.25 L95.05 319.30 L94.86 319.34 L94.89 319.22 Z M106.11 318.94 L106.25 319.13 L106.06 319.24 L105.90 318.97 L106.11 318.94 Z M97.33 318.77 L97.61 319.10 L96.39 319.84 L96.29 319.69 L97.33 318.77 Z M96.30 316.42 L96.30 316.73 L95.97 316.54 L96.11 316.42 L96.30 316.42 Z M96.93 313.98 L96.95 314.33 L96.34 314.45 L96.56 314.02 L96.93 313.98 Z M98.39 313.93 L98.63 314.04 L98.67 314.12 L98.09 314.05 L98.39 313.93 Z M113.29 311.84 L113.17 312.19 L112.96 312.21 L112.93 312.12 L113.29 311.84 Z M113.73 311.43 L113.66 311.78 L113.43 311.78 L113.48 311.53 L113.73 311.43 Z M99.62 311.24 L99.71 311.29 L99.71 311.41 L99.55 311.36 L99.62 311.24 Z M108.23 310.82 L107.92 311.08 L107.68 310.99 L107.69 310.87 L108.23 310.82 Z M116.89 309.27 L116.67 310.77 L114.23 310.77 L114.53 309.79 L116.89 309.27 Z M106.28 308.65 L107.24 309.11 L107.29 309.39 L106.56 309.45 L106.28 308.65 Z M105.85 308.52 L106.08 308.58 L106.13 308.71 L105.73 308.82 L105.85 308.52 Z M116.20 307.25 L116.30 307.31 L116.30 307.36 L116.06 307.29 L116.20 307.25 Z M118.00 306.92 L118.11 307.03 L118.14 307.22 L118.04 307.18 L118.00 306.92 Z M118.00 303.72 L118.86 304.14 L118.86 304.30 L117.92 303.92 L118.00 303.72 Z M118.61 303.64 L118.68 303.69 L118.70 303.76 L118.54 303.71 L118.61 303.64 Z M106.70 301.90 L106.44 302.09 L106.30 302.05 L106.51 301.78 L106.70 301.90 Z M176.11 288.67 L184.28 289.78 L184.72 295.16 L192.74 297.37 L195.39 304.31 L204.28 306.66 L210.83 310.57 L212.74 313.08 L212.31 314.94 L213.52 316.63 L213.89 320.14 L220.72 326.67 L225.47 326.82 L229.41 322.18 L229.91 317.04 L233.04 314.85 L234.33 318.07 L233.60 322.74 L236.70 321.84 L240.81 318.09 L243.00 317.88 L247.87 319.77 L251.15 323.83 L250.94 327.45 L246.64 333.43 L244.70 343.72 L228.99 354.79 L229.33 357.05 L227.12 362.65 L225.19 363.37 L222.93 361.63 L219.09 360.87 L217.42 359.68 L217.87 358.54 L215.11 357.98 L215.21 356.88 L217.00 356.19 L216.15 355.58 L217.13 355.42 L216.59 353.32 L215.07 352.50 L216.66 351.13 L216.64 348.26 L215.79 347.49 L214.85 348.08 L214.17 346.83 L211.86 347.25 L212.12 348.48 L209.30 348.19 L211.70 347.27 L210.17 345.53 L211.28 343.41 L213.49 343.75 L213.63 341.75 L215.14 342.09 L214.38 343.41 L216.03 342.99 L216.41 341.69 L215.23 340.19 L212.17 339.55 L210.85 337.89 L209.60 338.12 L210.05 337.42 L208.52 337.88 L206.95 336.45 L206.57 336.99 L204.31 334.94 L204.38 336.24 L202.15 337.63 L203.09 338.05 L200.29 338.57 L200.57 340.21 L199.44 340.68 L200.40 341.27 L199.39 341.95 L200.66 342.55 L201.28 341.60 L202.93 342.17 L200.54 343.28 L200.99 344.54 L199.11 345.39 L197.77 343.04 L199.46 342.29 L198.17 342.22 L197.39 340.94 L195.87 341.49 L196.66 340.33 L195.63 339.27 L191.74 337.65 L188.12 338.92 L188.35 338.02 L186.73 337.02 L185.79 338.40 L184.85 338.17 L185.25 336.66 L184.17 336.28 L185.79 334.96 L184.54 334.68 L185.62 333.29 L182.95 331.16 L180.55 330.23 L180.52 331.23 L179.29 331.69 L179.72 333.03 L176.82 332.19 L177.36 331.01 L175.09 331.43 L174.38 329.27 L175.55 328.23 L174.69 327.16 L173.27 328.52 L171.67 328.75 L171.39 327.96 L169.95 329.15 L170.45 329.93 L172.89 329.90 L171.10 333.09 L165.65 331.06 L165.04 331.89 L165.83 332.45 L164.07 332.73 L162.80 331.25 L165.74 331.01 L165.91 330.45 L163.55 328.85 L162.40 329.23 L160.75 331.86 L162.23 332.64 L161.76 333.84 L162.94 334.26 L163.03 335.44 L164.43 335.32 L165.17 336.50 L164.21 337.15 L162.54 336.33 L160.30 338.24 L160.21 339.13 L156.42 339.37 L152.82 345.15 L151.72 345.77 L150.31 344.95 L147.76 347.09 L146.85 346.14 L147.29 346.87 L144.84 347.55 L143.98 345.91 L144.84 345.51 L143.43 344.57 L150.07 344.35 L152.12 341.75 L150.68 340.87 L150.73 340.99 L150.33 342.02 L149.74 342.43 L150.44 341.16 L149.46 341.04 L150.70 339.93 L149.32 340.07 L148.75 338.83 L148.70 340.02 L147.67 340.40 L143.88 339.37 L146.26 338.12 L148.82 338.16 L150.00 336.94 L152.30 336.71 L151.51 337.29 L152.37 338.07 L153.22 336.62 L154.26 336.78 L151.46 335.67 L153.20 333.72 L154.21 334.99 L154.52 334.82 L153.69 331.93 L151.31 332.36 L151.10 333.69 L149.38 334.66 L149.06 333.08 L147.06 334.73 L143.41 334.57 L141.81 335.76 L141.15 334.97 L139.57 334.83 L139.85 335.73 L139.32 335.82 L138.51 334.76 L137.31 335.81 L134.66 334.43 L129.31 334.43 L126.54 336.80 L127.15 337.70 L125.88 338.36 L126.06 341.04 L119.47 339.34 L118.70 340.12 L115.74 339.81 L113.43 341.70 L112.89 340.80 L108.91 340.75 L108.75 339.62 L106.28 339.36 L106.93 339.04 L106.28 337.77 L108.49 338.36 L109.94 337.55 L110.37 335.36 L111.61 335.58 L112.63 334.49 L113.59 335.27 L121.74 334.38 L123.66 331.44 L127.19 333.06 L131.88 332.85 L135.34 331.29 L148.23 332.90 L149.95 332.07 L150.25 330.82 L149.67 330.02 L146.32 329.93 L148.04 329.81 L148.12 329.69 L146.18 328.78 L149.86 327.20 L148.70 326.85 L149.32 326.05 L147.06 325.51 L148.91 325.23 L147.46 324.26 L152.40 323.34 L154.87 323.70 L155.31 324.70 L156.12 324.21 L156.16 325.37 L156.68 325.44 L156.85 323.39 L156.07 323.03 L159.04 322.61 L158.75 321.53 L159.69 321.03 L158.51 320.71 L159.64 320.54 L159.67 319.69 L161.86 320.24 L161.51 319.41 L162.96 318.57 L166.85 317.58 L166.38 316.38 L156.42 317.83 L152.49 317.44 L153.41 318.64 L152.42 318.87 L151.65 317.81 L144.80 317.62 L142.79 318.61 L141.52 317.67 L136.39 318.45 L133.62 319.93 L132.82 319.24 L132.47 320.09 L126.46 319.39 L124.09 319.74 L123.40 321.01 L119.50 320.00 L118.91 321.20 L116.02 319.91 L113.80 320.47 L110.13 317.37 L109.40 318.56 L108.35 317.77 L107.12 319.69 L107.52 317.95 L104.28 318.70 L104.88 319.70 L102.37 321.32 L102.60 322.28 L100.06 321.86 L99.22 317.65 L97.68 315.95 L98.51 314.40 L101.94 312.66 L99.50 312.63 L99.54 311.41 L100.09 312.09 L100.69 310.80 L103.07 312.38 L103.80 309.64 L105.05 310.21 L105.17 311.44 L106.41 309.78 L108.01 310.54 L107.14 311.22 L107.76 312.07 L110.51 311.57 L113.05 314.56 L117.21 311.55 L119.97 311.04 L119.57 310.89 L118.44 311.25 L117.99 311.11 L118.68 309.93 L117.47 309.97 L117.78 308.07 L116.51 307.46 L118.30 307.53 L119.29 306.37 L120.72 307.50 L119.54 308.40 L121.12 307.32 L121.76 307.90 L122.07 307.81 L119.59 306.21 L121.94 302.09 L118.42 302.23 L117.43 303.71 L118.14 304.28 L117.05 303.86 L116.54 305.31 L115.54 305.36 L114.79 304.75 L116.27 303.93 L116.02 302.28 L112.01 303.62 L114.70 299.83 L113.48 298.05 L113.03 299.62 L111.31 300.68 L109.34 300.52 L107.69 299.06 L107.55 297.26 L109.45 295.59 L110.65 295.74 L109.63 293.16 L111.42 287.96 L114.17 284.12 L115.91 283.69 L127.30 288.48 L138.97 291.00 L155.55 289.90 L159.97 284.41 L164.60 282.87 L176.11 288.67 Z" fill="#c084fc" stroke="#ffffff" stroke-width="1.4" data-name="Muğla"/>
    <path d="M1068.12 184.16 L1070.74 198.14 L1065.44 198.98 L1057.73 197.95 L1053.24 198.99 L1043.16 198.23 L1031.36 202.52 L1031.32 205.36 L1024.09 205.48 L1022.50 206.28 L1022.63 207.80 L1025.98 211.39 L1026.11 213.51 L1018.87 218.31 L1014.04 220.04 L999.60 219.36 L995.69 220.38 L992.68 223.08 L985.37 224.10 L983.87 222.74 L984.69 219.14 L983.66 217.18 L977.49 212.84 L969.79 200.70 L970.13 199.37 L977.18 192.55 L977.16 187.48 L974.87 184.76 L972.79 184.17 L970.74 176.29 L972.24 173.00 L975.99 171.28 L984.18 170.39 L987.76 171.45 L993.44 174.26 L1001.45 181.86 L1004.65 183.45 L1011.83 184.32 L1027.24 180.48 L1036.27 174.26 L1036.38 172.74 L1034.67 170.52 L1036.82 168.13 L1043.03 165.64 L1051.61 163.97 L1054.71 170.62 L1061.89 177.34 L1064.46 178.49 L1068.12 184.16 Z" fill="#34d399" stroke="#ffffff" stroke-width="1.4" data-name="Muş"/>
    <path d="M575.37 171.60 L579.49 173.41 L577.87 180.17 L584.14 185.59 L584.52 188.35 L586.72 192.02 L584.43 193.76 L581.45 207.03 L588.70 210.16 L588.77 218.60 L585.51 221.61 L579.68 223.44 L578.56 226.30 L579.35 232.08 L576.63 234.18 L571.34 234.96 L563.77 231.42 L555.54 233.49 L550.45 231.98 L543.57 227.37 L539.07 218.46 L535.52 216.01 L534.71 213.76 L538.22 207.32 L540.75 205.93 L541.47 202.70 L543.03 201.57 L548.57 202.17 L551.39 201.50 L551.54 199.54 L554.38 194.99 L557.89 192.52 L557.31 189.46 L561.61 188.33 L560.92 183.54 L565.15 180.62 L564.77 177.51 L569.02 172.40 L567.26 171.81 L563.21 174.51 L559.92 173.92 L560.00 170.58 L562.88 163.94 L571.31 167.45 L571.53 170.00 L575.37 171.60 Z" fill="#f97316" stroke="#ffffff" stroke-width="1.4" data-name="Nevşehir"/>
    <path d="M554.82 233.46 L563.77 231.42 L570.93 234.85 L573.15 235.02 L578.35 233.41 L579.53 229.95 L583.20 230.09 L588.22 239.24 L592.04 240.79 L599.58 241.24 L601.88 243.14 L603.92 246.81 L603.84 255.04 L601.02 259.56 L598.80 260.26 L597.49 262.08 L598.05 266.92 L596.78 268.65 L587.08 275.67 L576.69 275.11 L574.03 276.31 L572.90 278.39 L575.52 283.38 L575.67 286.74 L571.13 290.49 L570.82 294.82 L565.36 294.94 L558.84 297.68 L553.70 297.74 L551.16 294.03 L547.74 291.45 L545.83 291.19 L545.65 287.91 L550.15 279.07 L550.17 276.05 L538.49 262.33 L529.65 256.15 L530.98 253.75 L533.47 252.62 L538.58 253.50 L542.43 248.56 L546.39 246.60 L546.48 241.82 L544.52 238.79 L544.84 233.99 L546.47 229.53 L554.82 233.46 Z" fill="#facc15" stroke="#ffffff" stroke-width="1.4" data-name="Niğde"/>
    <path d="M720.32 59.92 L727.92 60.08 L727.96 61.44 L733.87 62.48 L743.17 67.89 L747.71 66.18 L752.32 60.64 L753.69 62.06 L758.81 61.87 L758.22 65.31 L760.18 67.59 L763.78 68.22 L764.56 69.99 L779.83 71.87 L772.73 84.96 L779.49 93.50 L781.93 99.96 L773.78 105.88 L766.03 107.07 L761.53 110.24 L756.59 111.16 L753.87 109.76 L747.40 97.03 L738.77 96.55 L731.32 92.55 L729.14 92.50 L727.98 90.03 L721.31 87.72 L714.49 88.68 L708.03 87.82 L705.33 85.51 L700.26 84.85 L690.10 80.71 L690.60 78.82 L698.44 76.74 L703.61 73.95 L709.34 66.30 L719.13 62.02 L719.02 59.94 L720.32 59.92 Z" fill="#4ade80" stroke="#ffffff" stroke-width="1.4" data-name="Ordu"/>
    <path d="M667.51 297.80 L677.59 296.52 L683.47 294.24 L687.74 298.95 L692.60 302.33 L680.32 312.88 L674.69 322.53 L668.72 322.41 L662.93 319.07 L649.59 318.01 L650.70 311.85 L647.04 308.71 L639.15 311.99 L637.77 311.55 L640.99 306.57 L639.58 304.49 L639.74 297.10 L648.44 284.41 L656.40 279.83 L665.91 278.84 L660.26 288.30 L662.40 296.39 L667.51 297.80 Z" fill="#2dd4bf" stroke="#ffffff" stroke-width="1.4" data-name="Osmaniye"/>
    <path d="M973.76 50.73 L975.51 53.20 L976.00 56.15 L979.20 59.49 L983.08 61.69 L985.61 61.87 L986.54 63.35 L985.75 64.88 L981.51 66.88 L967.65 81.19 L962.92 84.05 L949.22 90.88 L927.66 98.29 L927.37 92.45 L929.43 88.58 L929.44 85.41 L926.56 77.22 L923.77 72.84 L918.35 69.49 L921.71 67.54 L928.56 66.62 L931.73 67.42 L942.53 63.71 L947.67 59.02 L959.85 57.02 L964.21 55.42 L969.57 51.51 L973.76 50.73 Z" fill="#38bdf8" stroke="#ffffff" stroke-width="1.4" data-name="Rize"/>
    <path d="M294.49 57.99 L312.23 61.12 L318.68 63.80 L332.47 64.65 L336.24 68.18 L334.52 71.61 L328.14 75.64 L326.06 79.51 L327.25 83.06 L333.16 86.78 L330.83 89.87 L330.50 96.32 L328.39 98.09 L324.04 99.13 L313.70 99.36 L308.52 104.24 L311.84 107.67 L310.42 110.82 L295.08 106.61 L279.05 108.61 L269.79 102.27 L266.92 96.84 L266.67 95.65 L273.05 95.51 L286.53 91.98 L290.12 84.49 L289.54 80.40 L294.96 77.74 L294.09 72.31 L289.43 67.93 L291.44 62.88 L294.87 60.58 L294.49 57.99 Z M294.49 57.99 L294.47 57.98 L294.49 57.98 L294.49 57.99 Z" fill="#6366f1" stroke="#ffffff" stroke-width="1.4" data-name="Sakarya"/>
    <path d="M711.65 56.78 L711.55 56.76 L711.55 56.73 L711.67 56.74 L711.65 56.78 Z M711.28 56.64 L711.46 56.68 L711.51 56.73 L711.41 56.75 L711.28 56.64 Z M688.02 45.49 L688.30 45.38 L688.38 45.72 L688.20 45.72 L688.02 45.49 Z M688.02 45.49 L688.17 46.34 L688.41 46.36 L688.47 45.61 L688.35 45.33 L700.90 47.85 L709.32 51.41 L711.08 53.11 L710.67 55.82 L711.58 57.46 L719.02 59.94 L719.13 62.02 L709.63 66.06 L703.61 73.95 L698.44 76.74 L690.60 78.82 L690.80 76.66 L688.15 75.54 L675.40 77.49 L670.53 74.98 L670.30 72.20 L661.77 70.38 L659.75 70.45 L658.66 74.71 L657.21 76.07 L649.94 79.03 L644.18 76.99 L637.00 77.69 L627.89 76.78 L624.69 73.78 L614.36 68.30 L590.21 63.53 L583.56 64.30 L581.89 62.09 L580.66 56.55 L577.63 53.32 L580.44 49.94 L591.45 45.67 L598.83 52.71 L605.06 53.61 L608.26 52.69 L610.70 50.78 L612.69 46.82 L610.52 39.79 L614.75 32.46 L615.62 29.01 L619.78 29.68 L625.30 29.09 L644.08 23.17 L650.50 26.16 L654.19 30.03 L655.25 40.32 L662.10 47.07 L669.25 49.76 L668.35 49.68 L668.11 50.79 L670.89 52.13 L671.18 53.23 L674.52 53.89 L679.21 52.95 L682.51 51.18 L685.84 46.20 L688.02 45.49 Z" fill="#a855f7" stroke="#ffffff" stroke-width="1.4" data-name="Samsun"/>
    <path d="M851.43 257.12 L862.37 257.97 L876.21 267.01 L882.47 267.44 L888.27 272.17 L888.73 281.82 L890.10 286.49 L904.58 311.41 L905.82 318.47 L908.76 322.94 L913.37 324.86 L887.49 334.93 L849.02 340.58 L836.06 338.18 L817.98 337.92 L807.46 329.70 L797.14 326.05 L784.35 325.44 L772.85 330.55 L772.86 323.60 L764.73 316.01 L761.84 307.64 L761.57 304.34 L762.70 300.05 L768.23 294.31 L772.36 292.02 L782.77 294.11 L792.88 289.29 L802.13 289.00 L810.74 283.44 L823.75 279.56 L824.76 278.38 L824.19 276.22 L832.13 272.32 L833.42 269.82 L833.40 263.89 L838.53 258.12 L845.98 255.09 L851.43 257.12 Z" fill="#ec4899" stroke="#ffffff" stroke-width="1.4" data-name="Şanlıurfa"/>
    <path d="M1047.38 248.74 L1053.78 250.12 L1068.15 256.23 L1074.91 252.91 L1082.36 253.78 L1084.17 255.14 L1087.64 260.96 L1084.48 266.09 L1084.28 268.95 L1070.48 267.38 L1065.18 264.66 L1060.37 264.61 L1053.49 267.29 L1048.30 272.77 L1043.03 275.97 L1032.56 276.93 L1020.63 276.08 L1015.64 274.00 L1013.64 271.83 L1007.23 273.10 L1003.87 270.92 L1006.19 267.93 L1005.80 266.08 L992.46 265.87 L988.26 264.29 L985.74 262.11 L987.07 259.74 L990.09 257.87 L990.12 255.68 L997.97 254.60 L1000.44 250.60 L1002.24 244.79 L1017.37 247.72 L1021.28 247.23 L1024.22 248.90 L1028.56 244.44 L1035.61 243.43 L1039.49 244.44 L1047.38 248.74 Z" fill="#f87171" stroke="#ffffff" stroke-width="1.4" data-name="Siirt"/>
    <path d="M580.96 0.47 L585.40 0.76 L587.62 2.85 L587.12 3.98 L589.24 4.92 L596.48 4.09 L597.31 5.81 L593.21 5.13 L590.37 8.75 L590.02 11.49 L592.49 15.44 L597.36 18.95 L596.49 19.61 L597.41 21.16 L600.96 22.99 L601.66 24.38 L610.32 26.40 L615.62 29.01 L614.75 32.46 L610.52 39.79 L612.76 46.48 L609.46 52.13 L605.06 53.61 L598.83 52.71 L591.45 45.67 L580.44 49.94 L574.67 56.94 L554.43 51.89 L551.55 50.18 L550.90 35.34 L557.28 32.11 L559.10 29.45 L559.30 27.32 L552.65 23.82 L538.62 22.93 L538.50 18.80 L535.90 14.49 L535.96 9.41 L541.18 10.29 L552.50 8.05 L553.58 9.22 L560.46 10.22 L571.75 9.44 L578.60 5.09 L581.19 1.98 L580.96 0.47 Z" fill="#fb7185" stroke="#ffffff" stroke-width="1.4" data-name="Sinop"/>
    <path d="M1070.94 267.45 L1084.28 268.95 L1088.59 271.81 L1095.00 271.93 L1105.09 274.04 L1116.23 274.07 L1112.53 286.90 L1112.42 297.75 L1116.56 302.81 L1108.36 299.04 L1105.57 300.60 L1095.68 296.20 L1087.58 297.36 L1083.55 299.79 L1075.80 297.90 L1074.64 296.35 L1072.62 295.98 L1068.35 298.01 L1069.13 299.70 L1066.38 300.49 L1066.46 301.74 L1064.20 303.21 L1059.63 310.39 L1056.17 310.29 L1045.36 312.77 L1043.58 307.98 L1044.97 305.37 L1041.06 302.02 L1036.42 302.24 L1037.13 299.74 L1026.18 307.78 L1014.41 310.91 L1015.58 306.51 L1013.67 300.73 L1008.77 301.58 L1007.15 300.75 L1006.26 298.51 L1006.37 290.29 L1016.46 288.41 L1019.42 286.71 L1018.44 282.93 L1019.93 279.69 L1015.64 274.00 L1023.88 276.89 L1042.11 276.18 L1048.30 272.77 L1053.49 267.29 L1059.92 264.70 L1065.18 264.66 L1070.94 267.45 Z" fill="#c084fc" stroke="#ffffff" stroke-width="1.4" data-name="Şırnak"/>
    <path d="M785.98 110.65 L787.66 119.07 L791.96 121.93 L800.54 125.68 L807.92 124.54 L820.62 128.75 L819.29 133.57 L817.52 134.52 L800.20 133.72 L798.11 135.27 L795.09 140.67 L796.24 142.61 L804.88 141.30 L806.89 142.66 L804.90 144.50 L800.09 145.37 L799.70 147.02 L798.09 147.69 L795.02 151.96 L794.04 160.82 L797.00 168.66 L796.60 182.67 L794.38 185.66 L789.33 186.49 L783.55 189.86 L768.40 190.71 L758.44 194.34 L746.40 193.78 L744.14 196.95 L744.19 199.04 L746.92 204.64 L745.51 208.40 L730.07 218.90 L713.33 220.81 L709.21 218.53 L704.61 217.66 L692.83 220.01 L694.46 214.79 L706.13 190.83 L704.40 187.68 L701.96 185.78 L695.65 183.44 L685.49 183.37 L675.74 186.24 L670.40 184.80 L666.23 186.25 L650.61 186.22 L644.54 182.65 L639.81 177.11 L635.26 175.66 L636.85 173.26 L645.64 167.93 L651.13 162.95 L651.32 160.82 L656.79 152.02 L654.64 151.01 L654.74 147.70 L651.37 145.37 L649.93 141.02 L644.82 138.07 L646.09 135.19 L654.37 135.18 L661.20 133.21 L666.14 134.50 L674.68 134.96 L684.96 132.21 L689.50 129.55 L691.55 126.15 L690.87 122.94 L695.41 117.79 L707.58 120.40 L714.44 117.85 L720.15 119.90 L736.77 122.20 L739.11 116.89 L744.65 114.50 L744.34 111.88 L746.06 110.04 L746.40 106.24 L750.14 103.60 L754.10 110.02 L757.92 111.23 L761.53 110.24 L766.03 107.07 L773.78 105.88 L781.93 99.96 L783.61 102.62 L785.98 110.65 Z" fill="#34d399" stroke="#ffffff" stroke-width="1.4" data-name="Sivas"/>
    <path d="M155.53 32.86 L157.60 33.40 L158.64 34.88 L157.38 36.05 L160.67 37.96 L155.79 53.74 L151.65 55.98 L149.76 59.76 L153.88 65.45 L147.03 67.05 L145.27 68.39 L145.36 69.75 L143.46 70.65 L143.93 71.35 L138.52 71.37 L136.19 69.68 L131.36 68.32 L115.57 70.81 L112.53 75.73 L112.08 78.88 L105.14 83.80 L102.93 87.83 L94.74 92.53 L85.43 94.82 L85.35 88.02 L86.23 84.97 L84.85 82.04 L81.67 81.75 L75.14 85.03 L72.52 85.29 L70.03 85.09 L66.77 81.56 L66.71 75.29 L69.98 69.23 L67.54 67.04 L67.80 64.75 L69.34 62.88 L76.80 60.52 L79.66 57.34 L79.72 54.35 L77.09 50.79 L77.20 47.73 L80.64 48.83 L91.11 47.41 L99.98 47.45 L107.19 49.79 L113.15 55.02 L116.18 55.36 L118.22 54.39 L123.83 47.35 L125.73 43.54 L125.80 40.54 L129.32 38.25 L131.79 37.35 L137.81 37.85 L144.78 35.19 L155.53 32.86 Z" fill="#f97316" stroke="#ffffff" stroke-width="1.4" data-name="Tekirdağ"/>
    <path d="M690.80 76.66 L689.86 80.06 L690.68 81.17 L700.26 84.85 L705.33 85.51 L707.81 87.75 L714.49 88.68 L721.31 87.72 L727.98 90.03 L729.14 92.50 L731.32 92.55 L738.77 96.55 L747.88 97.30 L750.14 103.60 L746.40 106.24 L746.06 110.04 L744.34 111.88 L744.65 114.50 L739.11 116.89 L736.77 122.20 L720.15 119.90 L714.44 117.85 L707.58 120.40 L695.41 117.79 L690.87 122.94 L691.52 126.32 L688.56 130.72 L674.68 134.96 L666.14 134.50 L661.20 133.21 L654.37 135.18 L646.09 135.19 L644.69 132.65 L644.59 129.09 L643.01 126.81 L624.02 126.34 L616.44 119.92 L617.54 117.06 L620.46 114.64 L629.22 111.38 L637.26 100.41 L644.38 100.36 L649.47 103.01 L656.65 103.93 L667.34 99.02 L675.53 90.75 L676.54 86.66 L673.07 80.31 L675.03 77.35 L678.27 77.61 L685.71 75.50 L690.80 76.66 Z" fill="#facc15" stroke="#ffffff" stroke-width="1.4" data-name="Tokat"/>
    <path d="M861.06 62.46 L865.23 63.44 L870.22 67.58 L874.88 69.21 L879.80 68.44 L883.63 69.04 L889.47 72.08 L899.59 71.73 L904.91 74.70 L911.83 73.68 L918.34 69.51 L920.32 70.13 L923.55 72.56 L926.39 76.93 L929.44 85.41 L929.43 88.58 L927.37 92.45 L927.66 98.29 L911.55 100.45 L903.21 99.73 L904.16 96.09 L899.92 91.86 L897.70 90.58 L896.23 91.36 L895.78 92.79 L897.09 95.06 L896.18 96.41 L894.40 96.57 L890.56 93.30 L886.66 92.95 L887.39 88.45 L885.24 86.94 L882.76 89.58 L880.37 95.40 L877.11 96.79 L854.04 89.92 L843.49 82.41 L842.17 78.35 L842.25 71.69 L845.98 64.57 L852.59 66.08 L861.06 62.46 Z" fill="#4ade80" stroke="#ffffff" stroke-width="1.4" data-name="Trabzon"/>
    <path d="M914.37 160.24 L931.40 160.11 L929.73 162.85 L918.38 167.65 L921.86 170.44 L918.21 172.40 L910.04 176.32 L903.57 174.73 L899.38 181.57 L900.14 185.00 L899.26 187.18 L898.00 188.78 L892.55 188.87 L889.21 191.42 L890.71 194.86 L890.59 198.05 L887.36 202.82 L883.54 205.80 L874.25 206.81 L865.50 210.11 L837.83 201.10 L831.16 201.06 L825.06 202.43 L820.36 200.74 L821.13 194.83 L817.69 187.16 L820.61 183.00 L828.13 181.04 L830.18 178.75 L824.39 178.28 L821.83 176.88 L824.39 173.78 L832.66 170.89 L840.91 165.50 L855.03 163.12 L864.68 164.55 L872.10 163.86 L873.30 166.49 L876.43 166.77 L878.47 166.13 L883.03 161.97 L888.33 160.30 L890.25 159.98 L896.54 161.93 L905.53 159.56 L914.37 160.24 Z" fill="#2dd4bf" stroke="#ffffff" stroke-width="1.4" data-name="Tunceli"/>
    <path d="M264.66 208.31 L264.76 212.58 L263.41 216.68 L257.09 225.33 L256.06 228.58 L250.94 230.79 L249.34 235.47 L245.96 239.96 L244.82 245.00 L242.83 244.78 L235.43 240.62 L222.62 244.77 L214.82 243.36 L203.82 240.39 L197.84 234.76 L199.72 232.68 L198.82 224.06 L199.30 220.65 L201.18 217.10 L210.20 211.60 L214.46 210.72 L223.40 211.10 L227.87 208.03 L250.63 201.29 L262.78 203.47 L264.66 208.31 Z" fill="#38bdf8" stroke="#ffffff" stroke-width="1.4" data-name="Uşak"/>
    <path d="M1106.60 169.50 L1111.90 170.06 L1115.79 173.69 L1121.86 176.38 L1125.61 175.47 L1130.04 171.23 L1145.43 172.09 L1149.85 171.12 L1153.34 173.78 L1153.31 175.78 L1154.79 176.47 L1153.94 178.49 L1155.00 179.46 L1154.89 181.75 L1161.47 185.73 L1162.34 188.13 L1159.50 187.13 L1157.32 188.65 L1160.35 190.08 L1161.50 192.61 L1159.16 194.77 L1161.83 201.17 L1163.82 203.48 L1165.97 203.46 L1167.59 204.81 L1167.74 206.91 L1165.15 212.18 L1166.65 214.96 L1165.67 216.48 L1168.88 218.02 L1168.27 222.57 L1169.06 225.53 L1167.67 229.36 L1167.69 232.88 L1172.01 234.25 L1176.41 232.90 L1179.17 234.86 L1179.70 236.48 L1174.53 239.59 L1173.36 241.28 L1173.91 243.85 L1173.14 247.93 L1170.59 249.05 L1171.54 250.90 L1169.88 250.80 L1167.99 252.64 L1167.42 255.13 L1163.88 259.54 L1164.45 260.86 L1162.75 264.07 L1165.10 265.38 L1169.02 264.89 L1173.87 266.14 L1173.70 268.17 L1175.54 269.63 L1177.24 269.66 L1176.78 271.51 L1183.77 271.58 L1177.83 277.33 L1174.22 279.13 L1168.43 278.53 L1162.68 280.31 L1161.49 279.35 L1163.17 275.23 L1161.92 272.38 L1160.41 271.47 L1151.88 274.69 L1145.90 274.11 L1141.08 275.76 L1134.31 274.15 L1127.51 274.83 L1105.09 274.04 L1095.00 271.93 L1088.11 271.70 L1084.28 268.95 L1084.48 266.09 L1087.64 260.96 L1084.17 255.14 L1082.36 253.78 L1074.91 252.91 L1071.26 249.05 L1072.61 246.46 L1069.90 246.04 L1067.67 244.27 L1068.87 239.65 L1065.66 232.27 L1065.82 230.22 L1068.27 228.32 L1078.26 224.15 L1081.83 218.55 L1082.97 218.33 L1088.71 211.73 L1096.10 207.32 L1097.52 205.16 L1097.59 201.91 L1093.20 198.58 L1085.42 194.94 L1086.61 188.43 L1094.26 185.87 L1095.69 184.01 L1095.57 179.39 L1090.50 176.61 L1090.17 175.15 L1091.58 174.22 L1097.20 173.87 L1103.37 169.25 L1106.60 169.50 Z" fill="#6366f1" stroke="#ffffff" stroke-width="1.4" data-name="Van"/>
    <path d="M233.49 87.85 L236.48 88.48 L235.75 96.73 L231.48 95.49 L225.52 96.99 L211.59 96.80 L209.42 100.67 L210.80 101.85 L207.21 103.28 L201.46 101.83 L199.61 100.13 L195.01 99.35 L195.82 97.22 L204.48 94.22 L208.22 91.45 L226.43 90.48 L233.49 87.85 Z" fill="#a855f7" stroke="#ffffff" stroke-width="1.4" data-name="Yalova"/>
    <path d="M605.87 118.24 L608.29 119.83 L616.44 119.92 L624.02 126.34 L643.01 126.81 L644.59 129.09 L644.69 132.65 L646.09 135.19 L644.82 138.07 L649.93 141.02 L651.37 145.37 L654.74 147.70 L654.64 151.01 L656.79 152.02 L651.32 160.82 L651.13 162.95 L645.64 167.93 L636.85 173.26 L634.57 176.41 L629.69 180.27 L626.38 181.79 L618.87 181.70 L613.92 182.71 L613.43 184.59 L614.62 188.17 L599.48 194.05 L586.72 192.02 L584.52 188.35 L584.14 185.59 L577.87 180.17 L579.39 173.27 L571.65 170.11 L571.31 167.45 L560.94 163.47 L555.37 160.11 L554.45 158.69 L555.90 155.46 L551.11 152.33 L548.43 148.51 L544.15 147.55 L536.47 148.29 L526.09 143.80 L525.18 137.76 L527.18 136.79 L539.24 135.74 L546.49 132.31 L571.92 132.19 L578.40 128.69 L587.95 129.94 L595.57 126.12 L594.88 118.45 L602.45 118.42 L605.19 117.47 L605.87 118.24 Z" fill="#ec4899" stroke="#ffffff" stroke-width="1.4" data-name="Yozgat"/>
    <path d="M397.89 33.96 L399.15 36.43 L415.68 50.03 L418.74 54.27 L415.28 54.39 L404.97 59.34 L402.42 64.44 L402.33 68.05 L361.46 65.68 L355.15 60.64 L359.58 55.89 L359.16 52.20 L360.10 52.72 L360.31 52.05 L358.47 50.79 L359.01 49.42 L372.80 45.25 L380.81 41.66 L381.19 40.71 L383.14 40.76 L389.96 36.41 L397.89 33.96 Z" fill="#f87171" stroke="#ffffff" stroke-width="1.4" data-name="Zonguldak"/>
  </g>
</svg>
